G04 #@! TF.GenerationSoftware,KiCad,Pcbnew,(5.1.0-0)*
G04 #@! TF.CreationDate,2019-05-11T17:44:57+01:00*
G04 #@! TF.ProjectId,LTC3780,4c544333-3738-4302-9e6b-696361645f70,rev?*
G04 #@! TF.SameCoordinates,Original*
G04 #@! TF.FileFunction,Soldermask,Bot*
G04 #@! TF.FilePolarity,Negative*
%FSLAX46Y46*%
G04 Gerber Fmt 4.6, Leading zero omitted, Abs format (unit mm)*
G04 Created by KiCad (PCBNEW (5.1.0-0)) date 2019-05-11 17:44:57*
%MOMM*%
%LPD*%
G04 APERTURE LIST*
%ADD10C,0.100000*%
G04 APERTURE END LIST*
D10*
G36*
X213435014Y-99719258D02*
G01*
X213808271Y-99873866D01*
X213808273Y-99873867D01*
X213900908Y-99935764D01*
X214144196Y-100098324D01*
X214429876Y-100384004D01*
X214654334Y-100719929D01*
X214808942Y-101093186D01*
X214887760Y-101489433D01*
X214887760Y-101893447D01*
X214808942Y-102289694D01*
X214654334Y-102662951D01*
X214654333Y-102662953D01*
X214429876Y-102998876D01*
X214144196Y-103284556D01*
X213808273Y-103509013D01*
X213808272Y-103509014D01*
X213808271Y-103509014D01*
X213435014Y-103663622D01*
X213038767Y-103742440D01*
X212634753Y-103742440D01*
X212238506Y-103663622D01*
X211865249Y-103509014D01*
X211865248Y-103509014D01*
X211865247Y-103509013D01*
X211529324Y-103284556D01*
X211243644Y-102998876D01*
X211019187Y-102662953D01*
X211019186Y-102662951D01*
X210864578Y-102289694D01*
X210785760Y-101893447D01*
X210785760Y-101489433D01*
X210864578Y-101093186D01*
X211019186Y-100719929D01*
X211243644Y-100384004D01*
X211529324Y-100098324D01*
X211772612Y-99935764D01*
X211865247Y-99873867D01*
X211865249Y-99873866D01*
X212238506Y-99719258D01*
X212634753Y-99640440D01*
X213038767Y-99640440D01*
X213435014Y-99719258D01*
X213435014Y-99719258D01*
G37*
G36*
X123905094Y-99556698D02*
G01*
X124278351Y-99711306D01*
X124278353Y-99711307D01*
X124290252Y-99719258D01*
X124614276Y-99935764D01*
X124899956Y-100221444D01*
X125124414Y-100557369D01*
X125279022Y-100930626D01*
X125357840Y-101326873D01*
X125357840Y-101730887D01*
X125279022Y-102127134D01*
X125211687Y-102289694D01*
X125124413Y-102500393D01*
X124899956Y-102836316D01*
X124614276Y-103121996D01*
X124278353Y-103346453D01*
X124278352Y-103346454D01*
X124278351Y-103346454D01*
X123905094Y-103501062D01*
X123508847Y-103579880D01*
X123104833Y-103579880D01*
X122708586Y-103501062D01*
X122335329Y-103346454D01*
X122335328Y-103346454D01*
X122335327Y-103346453D01*
X121999404Y-103121996D01*
X121713724Y-102836316D01*
X121489267Y-102500393D01*
X121401993Y-102289694D01*
X121334658Y-102127134D01*
X121255840Y-101730887D01*
X121255840Y-101326873D01*
X121334658Y-100930626D01*
X121489266Y-100557369D01*
X121713724Y-100221444D01*
X121999404Y-99935764D01*
X122323428Y-99719258D01*
X122335327Y-99711307D01*
X122335329Y-99711306D01*
X122708586Y-99556698D01*
X123104833Y-99477880D01*
X123508847Y-99477880D01*
X123905094Y-99556698D01*
X123905094Y-99556698D01*
G37*
G36*
X212584218Y-86990839D02*
G01*
X212815320Y-87060943D01*
X213028305Y-87174786D01*
X213214987Y-87327993D01*
X213368194Y-87514675D01*
X213482037Y-87727660D01*
X213552141Y-87958762D01*
X213575812Y-88199100D01*
X213552141Y-88439438D01*
X213482037Y-88670540D01*
X213368194Y-88883525D01*
X213214987Y-89070207D01*
X213028305Y-89223414D01*
X212815320Y-89337257D01*
X212584218Y-89407361D01*
X212404109Y-89425100D01*
X211633651Y-89425100D01*
X211453542Y-89407361D01*
X211222440Y-89337257D01*
X211009455Y-89223414D01*
X210822773Y-89070207D01*
X210669566Y-88883525D01*
X210555723Y-88670540D01*
X210485619Y-88439438D01*
X210461948Y-88199100D01*
X210485619Y-87958762D01*
X210555723Y-87727660D01*
X210669566Y-87514675D01*
X210822773Y-87327993D01*
X211009455Y-87174786D01*
X211222440Y-87060943D01*
X211453542Y-86990839D01*
X211633651Y-86973100D01*
X212404109Y-86973100D01*
X212584218Y-86990839D01*
X212584218Y-86990839D01*
G37*
G36*
X125122000Y-88551200D02*
G01*
X122020000Y-88551200D01*
X122020000Y-86099200D01*
X125122000Y-86099200D01*
X125122000Y-88551200D01*
X125122000Y-88551200D01*
G37*
G36*
X213569880Y-85465100D02*
G01*
X210467880Y-85465100D01*
X210467880Y-83013100D01*
X213569880Y-83013100D01*
X213569880Y-85465100D01*
X213569880Y-85465100D01*
G37*
G36*
X124136338Y-82156939D02*
G01*
X124367440Y-82227043D01*
X124580425Y-82340886D01*
X124767107Y-82494093D01*
X124920314Y-82680775D01*
X125034157Y-82893760D01*
X125104261Y-83124862D01*
X125127932Y-83365200D01*
X125104261Y-83605538D01*
X125034157Y-83836640D01*
X124920314Y-84049625D01*
X124767107Y-84236307D01*
X124580425Y-84389514D01*
X124367440Y-84503357D01*
X124136338Y-84573461D01*
X123956229Y-84591200D01*
X123185771Y-84591200D01*
X123005662Y-84573461D01*
X122774560Y-84503357D01*
X122561575Y-84389514D01*
X122374893Y-84236307D01*
X122221686Y-84049625D01*
X122107843Y-83836640D01*
X122037739Y-83605538D01*
X122014068Y-83365200D01*
X122037739Y-83124862D01*
X122107843Y-82893760D01*
X122221686Y-82680775D01*
X122374893Y-82494093D01*
X122561575Y-82340886D01*
X122774560Y-82227043D01*
X123005662Y-82156939D01*
X123185771Y-82139200D01*
X123956229Y-82139200D01*
X124136338Y-82156939D01*
X124136338Y-82156939D01*
G37*
G36*
X124331814Y-51065558D02*
G01*
X124705071Y-51220166D01*
X124705073Y-51220167D01*
X124780497Y-51270564D01*
X125040996Y-51444624D01*
X125326676Y-51730304D01*
X125551134Y-52066229D01*
X125705742Y-52439486D01*
X125784560Y-52835733D01*
X125784560Y-53239747D01*
X125705742Y-53635994D01*
X125602420Y-53885436D01*
X125551133Y-54009253D01*
X125326676Y-54345176D01*
X125040996Y-54630856D01*
X124705073Y-54855313D01*
X124705072Y-54855314D01*
X124705071Y-54855314D01*
X124331814Y-55009922D01*
X123935567Y-55088740D01*
X123531553Y-55088740D01*
X123135306Y-55009922D01*
X122762049Y-54855314D01*
X122762048Y-54855314D01*
X122762047Y-54855313D01*
X122426124Y-54630856D01*
X122140444Y-54345176D01*
X121915987Y-54009253D01*
X121864700Y-53885436D01*
X121761378Y-53635994D01*
X121682560Y-53239747D01*
X121682560Y-52835733D01*
X121761378Y-52439486D01*
X121915986Y-52066229D01*
X122140444Y-51730304D01*
X122426124Y-51444624D01*
X122686623Y-51270564D01*
X122762047Y-51220167D01*
X122762049Y-51220166D01*
X123135306Y-51065558D01*
X123531553Y-50986740D01*
X123935567Y-50986740D01*
X124331814Y-51065558D01*
X124331814Y-51065558D01*
G37*
G36*
X212805094Y-50605818D02*
G01*
X213178351Y-50760426D01*
X213178353Y-50760427D01*
X213514276Y-50984884D01*
X213799956Y-51270564D01*
X214024414Y-51606489D01*
X214179022Y-51979746D01*
X214257840Y-52375993D01*
X214257840Y-52780007D01*
X214179022Y-53176254D01*
X214152722Y-53239747D01*
X214024413Y-53549513D01*
X213799956Y-53885436D01*
X213514276Y-54171116D01*
X213178353Y-54395573D01*
X213178352Y-54395574D01*
X213178351Y-54395574D01*
X212805094Y-54550182D01*
X212408847Y-54629000D01*
X212004833Y-54629000D01*
X211608586Y-54550182D01*
X211235329Y-54395574D01*
X211235328Y-54395574D01*
X211235327Y-54395573D01*
X210899404Y-54171116D01*
X210613724Y-53885436D01*
X210389267Y-53549513D01*
X210260958Y-53239747D01*
X210234658Y-53176254D01*
X210155840Y-52780007D01*
X210155840Y-52375993D01*
X210234658Y-51979746D01*
X210389266Y-51606489D01*
X210613724Y-51270564D01*
X210899404Y-50984884D01*
X211235327Y-50760427D01*
X211235329Y-50760426D01*
X211608586Y-50605818D01*
X212004833Y-50527000D01*
X212408847Y-50527000D01*
X212805094Y-50605818D01*
X212805094Y-50605818D01*
G37*
M02*
