G04 #@! TF.GenerationSoftware,KiCad,Pcbnew,(5.1.0-0)*
G04 #@! TF.CreationDate,2019-05-11T17:44:57+01:00*
G04 #@! TF.ProjectId,LTC3780,4c544333-3738-4302-9e6b-696361645f70,rev?*
G04 #@! TF.SameCoordinates,Original*
G04 #@! TF.FileFunction,Copper,L2,Bot*
G04 #@! TF.FilePolarity,Positive*
%FSLAX46Y46*%
G04 Gerber Fmt 4.6, Leading zero omitted, Abs format (unit mm)*
G04 Created by KiCad (PCBNEW (5.1.0-0)) date 2019-05-11 17:44:57*
%MOMM*%
%LPD*%
G04 APERTURE LIST*
%ADD10R,3.000000X2.350000*%
%ADD11O,3.000000X2.350000*%
%ADD12C,2.200000*%
%ADD13C,0.800000*%
%ADD14C,0.250000*%
%ADD15C,0.254000*%
G04 APERTURE END LIST*
D10*
X123571000Y-87325200D03*
D11*
X123571000Y-83365200D03*
D10*
X212018880Y-84239100D03*
D11*
X212018880Y-88199100D03*
D12*
X211328000Y-79006700D03*
X131292600Y-77744320D03*
D13*
X177784760Y-93118940D03*
X167543480Y-97571560D03*
X164429440Y-88582500D03*
X163906200Y-92415360D03*
X169560240Y-86507320D03*
X193837560Y-93761560D03*
X193802000Y-96895920D03*
X197815200Y-95351600D03*
X199151240Y-60446920D03*
X200764140Y-60515500D03*
X202377040Y-60540900D03*
X184617360Y-93741240D03*
X178465480Y-81968340D03*
X173448980Y-84190840D03*
X174017940Y-79496920D03*
X172676820Y-79512160D03*
X171383960Y-79512160D03*
X170045380Y-79547720D03*
X168821100Y-79562960D03*
X174066200Y-78290420D03*
X174101760Y-77081380D03*
X174083980Y-75826620D03*
X174083980Y-74569320D03*
X163908740Y-79547720D03*
X167627300Y-79532480D03*
X166453820Y-79532480D03*
X165229540Y-79547720D03*
X168341040Y-78455520D03*
X191239140Y-91059000D03*
X192740280Y-89677240D03*
X191297560Y-92417900D03*
X121947940Y-69029580D03*
X123758960Y-69057520D03*
X125562360Y-69088000D03*
X166669720Y-102059740D03*
X167591740Y-98877120D03*
X179100480Y-98353880D03*
X184764680Y-98191320D03*
X176905920Y-73568560D03*
X165963600Y-62677040D03*
X187759340Y-95603060D03*
X184302400Y-74107040D03*
X157520640Y-61452760D03*
X179438300Y-89893140D03*
X179105419Y-93019739D03*
X159354520Y-73870820D03*
X175707040Y-61991240D03*
X181058820Y-93759020D03*
X176281080Y-53784500D03*
X180169820Y-94749620D03*
D14*
X166014400Y-62677040D02*
X165963600Y-62677040D01*
X176905920Y-73568560D02*
X166014400Y-62677040D01*
X187759340Y-77563980D02*
X184302400Y-74107040D01*
X187759340Y-95603060D02*
X187759340Y-77563980D01*
X157920639Y-61852759D02*
X157920639Y-70067119D01*
X157520640Y-61452760D02*
X157920639Y-61852759D01*
X177746660Y-89893140D02*
X179438300Y-89893140D01*
X170009820Y-82156300D02*
X164099240Y-82156300D01*
X170009820Y-82156300D02*
X177746660Y-89893140D01*
X164099240Y-82156300D02*
X160384490Y-78441550D01*
X160384490Y-78441550D02*
X160384490Y-72530970D01*
X157920639Y-70067119D02*
X160384490Y-72530970D01*
X163576000Y-83428840D02*
X159354520Y-79207360D01*
X169514520Y-83428840D02*
X163576000Y-83428840D01*
X179105419Y-93019739D02*
X169514520Y-83428840D01*
X159354520Y-79207360D02*
X159354520Y-74436505D01*
X159354520Y-74436505D02*
X159354520Y-73870820D01*
X181058820Y-93193335D02*
X181058820Y-93759020D01*
X175707040Y-61991240D02*
X181058820Y-67343020D01*
X181058820Y-67343020D02*
X181058820Y-93193335D01*
X176281080Y-53784500D02*
X174531020Y-55534560D01*
X180169820Y-68158360D02*
X180169820Y-94183935D01*
X174531020Y-62519560D02*
X180169820Y-68158360D01*
X174531020Y-55534560D02*
X174531020Y-62519560D01*
X180169820Y-94183935D02*
X180169820Y-94749620D01*
D15*
G36*
X217340001Y-106355400D02*
G01*
X118660000Y-106355400D01*
X118660000Y-101269355D01*
X120671840Y-101269355D01*
X120671840Y-101788405D01*
X120773101Y-102297481D01*
X120971733Y-102777021D01*
X121260102Y-103208595D01*
X121627125Y-103575618D01*
X122058699Y-103863987D01*
X122538239Y-104062619D01*
X123047315Y-104163880D01*
X123566365Y-104163880D01*
X124075441Y-104062619D01*
X124554981Y-103863987D01*
X124986555Y-103575618D01*
X125353578Y-103208595D01*
X125641947Y-102777021D01*
X125840579Y-102297481D01*
X125941840Y-101788405D01*
X125941840Y-101431915D01*
X210201760Y-101431915D01*
X210201760Y-101950965D01*
X210303021Y-102460041D01*
X210501653Y-102939581D01*
X210790022Y-103371155D01*
X211157045Y-103738178D01*
X211588619Y-104026547D01*
X212068159Y-104225179D01*
X212577235Y-104326440D01*
X213096285Y-104326440D01*
X213605361Y-104225179D01*
X214084901Y-104026547D01*
X214516475Y-103738178D01*
X214883498Y-103371155D01*
X215171867Y-102939581D01*
X215370499Y-102460041D01*
X215471760Y-101950965D01*
X215471760Y-101431915D01*
X215370499Y-100922839D01*
X215171867Y-100443299D01*
X214883498Y-100011725D01*
X214516475Y-99644702D01*
X214084901Y-99356333D01*
X213605361Y-99157701D01*
X213096285Y-99056440D01*
X212577235Y-99056440D01*
X212068159Y-99157701D01*
X211588619Y-99356333D01*
X211157045Y-99644702D01*
X210790022Y-100011725D01*
X210501653Y-100443299D01*
X210303021Y-100922839D01*
X210201760Y-101431915D01*
X125941840Y-101431915D01*
X125941840Y-101269355D01*
X125840579Y-100760279D01*
X125641947Y-100280739D01*
X125353578Y-99849165D01*
X124986555Y-99482142D01*
X124554981Y-99193773D01*
X124075441Y-98995141D01*
X123566365Y-98893880D01*
X123047315Y-98893880D01*
X122538239Y-98995141D01*
X122058699Y-99193773D01*
X121627125Y-99482142D01*
X121260102Y-99849165D01*
X120971733Y-100280739D01*
X120773101Y-100760279D01*
X120671840Y-101269355D01*
X118660000Y-101269355D01*
X118660000Y-88500200D01*
X121432928Y-88500200D01*
X121445188Y-88624682D01*
X121481498Y-88744380D01*
X121540463Y-88854694D01*
X121619815Y-88951385D01*
X121716506Y-89030737D01*
X121826820Y-89089702D01*
X121946518Y-89126012D01*
X122071000Y-89138272D01*
X123285250Y-89135200D01*
X123444000Y-88976450D01*
X123444000Y-87452200D01*
X123698000Y-87452200D01*
X123698000Y-88976450D01*
X123856750Y-89135200D01*
X125071000Y-89138272D01*
X125195482Y-89126012D01*
X125315180Y-89089702D01*
X125425494Y-89030737D01*
X125522185Y-88951385D01*
X125601537Y-88854694D01*
X125660502Y-88744380D01*
X125696812Y-88624682D01*
X125709072Y-88500200D01*
X125706000Y-87610950D01*
X125547250Y-87452200D01*
X123698000Y-87452200D01*
X123444000Y-87452200D01*
X121594750Y-87452200D01*
X121436000Y-87610950D01*
X121432928Y-88500200D01*
X118660000Y-88500200D01*
X118660000Y-86150200D01*
X121432928Y-86150200D01*
X121436000Y-87039450D01*
X121594750Y-87198200D01*
X123444000Y-87198200D01*
X123444000Y-85673950D01*
X123698000Y-85673950D01*
X123698000Y-87198200D01*
X125547250Y-87198200D01*
X125706000Y-87039450D01*
X125709072Y-86150200D01*
X125696812Y-86025718D01*
X125660502Y-85906020D01*
X125601537Y-85795706D01*
X125522185Y-85699015D01*
X125425494Y-85619663D01*
X125315180Y-85560698D01*
X125195482Y-85524388D01*
X125071000Y-85512128D01*
X123856750Y-85515200D01*
X123698000Y-85673950D01*
X123444000Y-85673950D01*
X123285250Y-85515200D01*
X122071000Y-85512128D01*
X121946518Y-85524388D01*
X121826820Y-85560698D01*
X121716506Y-85619663D01*
X121619815Y-85699015D01*
X121540463Y-85795706D01*
X121481498Y-85906020D01*
X121445188Y-86025718D01*
X121432928Y-86150200D01*
X118660000Y-86150200D01*
X118660000Y-83365200D01*
X121427243Y-83365200D01*
X121462190Y-83720022D01*
X121565688Y-84061208D01*
X121733759Y-84375647D01*
X121959945Y-84651255D01*
X122235553Y-84877441D01*
X122549992Y-85045512D01*
X122891178Y-85149010D01*
X123157089Y-85175200D01*
X123984911Y-85175200D01*
X124250822Y-85149010D01*
X124592008Y-85045512D01*
X124906447Y-84877441D01*
X125182055Y-84651255D01*
X125408241Y-84375647D01*
X125576312Y-84061208D01*
X125679810Y-83720022D01*
X125714757Y-83365200D01*
X125679810Y-83010378D01*
X125576312Y-82669192D01*
X125408241Y-82354753D01*
X125182055Y-82079145D01*
X124906447Y-81852959D01*
X124592008Y-81684888D01*
X124250822Y-81581390D01*
X123984911Y-81555200D01*
X123157089Y-81555200D01*
X122891178Y-81581390D01*
X122549992Y-81684888D01*
X122235553Y-81852959D01*
X121959945Y-82079145D01*
X121733759Y-82354753D01*
X121565688Y-82669192D01*
X121462190Y-83010378D01*
X121427243Y-83365200D01*
X118660000Y-83365200D01*
X118660000Y-61350821D01*
X156485640Y-61350821D01*
X156485640Y-61554699D01*
X156525414Y-61754658D01*
X156603435Y-61943016D01*
X156716703Y-62112534D01*
X156860866Y-62256697D01*
X157030384Y-62369965D01*
X157160639Y-62423919D01*
X157160640Y-70029787D01*
X157156963Y-70067119D01*
X157171637Y-70216104D01*
X157215093Y-70359365D01*
X157285665Y-70491395D01*
X157356840Y-70578121D01*
X157380639Y-70607120D01*
X157409637Y-70630918D01*
X159624491Y-72845774D01*
X159624491Y-72869243D01*
X159456459Y-72835820D01*
X159252581Y-72835820D01*
X159052622Y-72875594D01*
X158864264Y-72953615D01*
X158694746Y-73066883D01*
X158550583Y-73211046D01*
X158437315Y-73380564D01*
X158359294Y-73568922D01*
X158319520Y-73768881D01*
X158319520Y-73972759D01*
X158359294Y-74172718D01*
X158437315Y-74361076D01*
X158550583Y-74530594D01*
X158594521Y-74574532D01*
X158594520Y-79170037D01*
X158590844Y-79207360D01*
X158594520Y-79244682D01*
X158594520Y-79244692D01*
X158605517Y-79356345D01*
X158648974Y-79499606D01*
X158719546Y-79631636D01*
X158759391Y-79680186D01*
X158814519Y-79747361D01*
X158843523Y-79771164D01*
X163012200Y-83939842D01*
X163035999Y-83968841D01*
X163151724Y-84063814D01*
X163283753Y-84134386D01*
X163427014Y-84177843D01*
X163538667Y-84188840D01*
X163538676Y-84188840D01*
X163575999Y-84192516D01*
X163613322Y-84188840D01*
X169199719Y-84188840D01*
X178070419Y-93059542D01*
X178070419Y-93121678D01*
X178110193Y-93321637D01*
X178188214Y-93509995D01*
X178301482Y-93679513D01*
X178445645Y-93823676D01*
X178615163Y-93936944D01*
X178803521Y-94014965D01*
X179003480Y-94054739D01*
X179207358Y-94054739D01*
X179407317Y-94014965D01*
X179409821Y-94013928D01*
X179409821Y-94045908D01*
X179365883Y-94089846D01*
X179252615Y-94259364D01*
X179174594Y-94447722D01*
X179134820Y-94647681D01*
X179134820Y-94851559D01*
X179174594Y-95051518D01*
X179252615Y-95239876D01*
X179365883Y-95409394D01*
X179510046Y-95553557D01*
X179679564Y-95666825D01*
X179867922Y-95744846D01*
X180067881Y-95784620D01*
X180271759Y-95784620D01*
X180471718Y-95744846D01*
X180660076Y-95666825D01*
X180829594Y-95553557D01*
X180973757Y-95409394D01*
X181087025Y-95239876D01*
X181165046Y-95051518D01*
X181204820Y-94851559D01*
X181204820Y-94785256D01*
X181360718Y-94754246D01*
X181549076Y-94676225D01*
X181718594Y-94562957D01*
X181862757Y-94418794D01*
X181976025Y-94249276D01*
X182054046Y-94060918D01*
X182093820Y-93860959D01*
X182093820Y-93657081D01*
X182054046Y-93457122D01*
X181976025Y-93268764D01*
X181862757Y-93099246D01*
X181818820Y-93055309D01*
X181818820Y-74005101D01*
X183267400Y-74005101D01*
X183267400Y-74208979D01*
X183307174Y-74408938D01*
X183385195Y-74597296D01*
X183498463Y-74766814D01*
X183642626Y-74910977D01*
X183812144Y-75024245D01*
X184000502Y-75102266D01*
X184200461Y-75142040D01*
X184262599Y-75142040D01*
X186999341Y-77878784D01*
X186999340Y-94899349D01*
X186955403Y-94943286D01*
X186842135Y-95112804D01*
X186764114Y-95301162D01*
X186724340Y-95501121D01*
X186724340Y-95704999D01*
X186764114Y-95904958D01*
X186842135Y-96093316D01*
X186955403Y-96262834D01*
X187099566Y-96406997D01*
X187269084Y-96520265D01*
X187457442Y-96598286D01*
X187657401Y-96638060D01*
X187861279Y-96638060D01*
X188061238Y-96598286D01*
X188249596Y-96520265D01*
X188419114Y-96406997D01*
X188563277Y-96262834D01*
X188676545Y-96093316D01*
X188754566Y-95904958D01*
X188794340Y-95704999D01*
X188794340Y-95501121D01*
X188754566Y-95301162D01*
X188676545Y-95112804D01*
X188563277Y-94943286D01*
X188519340Y-94899349D01*
X188519340Y-88199100D01*
X209875123Y-88199100D01*
X209910070Y-88553922D01*
X210013568Y-88895108D01*
X210181639Y-89209547D01*
X210407825Y-89485155D01*
X210683433Y-89711341D01*
X210997872Y-89879412D01*
X211339058Y-89982910D01*
X211604969Y-90009100D01*
X212432791Y-90009100D01*
X212698702Y-89982910D01*
X213039888Y-89879412D01*
X213354327Y-89711341D01*
X213629935Y-89485155D01*
X213856121Y-89209547D01*
X214024192Y-88895108D01*
X214127690Y-88553922D01*
X214162637Y-88199100D01*
X214127690Y-87844278D01*
X214024192Y-87503092D01*
X213856121Y-87188653D01*
X213629935Y-86913045D01*
X213354327Y-86686859D01*
X213039888Y-86518788D01*
X212698702Y-86415290D01*
X212432791Y-86389100D01*
X211604969Y-86389100D01*
X211339058Y-86415290D01*
X210997872Y-86518788D01*
X210683433Y-86686859D01*
X210407825Y-86913045D01*
X210181639Y-87188653D01*
X210013568Y-87503092D01*
X209910070Y-87844278D01*
X209875123Y-88199100D01*
X188519340Y-88199100D01*
X188519340Y-85414100D01*
X209880808Y-85414100D01*
X209893068Y-85538582D01*
X209929378Y-85658280D01*
X209988343Y-85768594D01*
X210067695Y-85865285D01*
X210164386Y-85944637D01*
X210274700Y-86003602D01*
X210394398Y-86039912D01*
X210518880Y-86052172D01*
X211733130Y-86049100D01*
X211891880Y-85890350D01*
X211891880Y-84366100D01*
X212145880Y-84366100D01*
X212145880Y-85890350D01*
X212304630Y-86049100D01*
X213518880Y-86052172D01*
X213643362Y-86039912D01*
X213763060Y-86003602D01*
X213873374Y-85944637D01*
X213970065Y-85865285D01*
X214049417Y-85768594D01*
X214108382Y-85658280D01*
X214144692Y-85538582D01*
X214156952Y-85414100D01*
X214153880Y-84524850D01*
X213995130Y-84366100D01*
X212145880Y-84366100D01*
X211891880Y-84366100D01*
X210042630Y-84366100D01*
X209883880Y-84524850D01*
X209880808Y-85414100D01*
X188519340Y-85414100D01*
X188519340Y-83064100D01*
X209880808Y-83064100D01*
X209883880Y-83953350D01*
X210042630Y-84112100D01*
X211891880Y-84112100D01*
X211891880Y-82587850D01*
X212145880Y-82587850D01*
X212145880Y-84112100D01*
X213995130Y-84112100D01*
X214153880Y-83953350D01*
X214156952Y-83064100D01*
X214144692Y-82939618D01*
X214108382Y-82819920D01*
X214049417Y-82709606D01*
X213970065Y-82612915D01*
X213873374Y-82533563D01*
X213763060Y-82474598D01*
X213643362Y-82438288D01*
X213518880Y-82426028D01*
X212304630Y-82429100D01*
X212145880Y-82587850D01*
X211891880Y-82587850D01*
X211733130Y-82429100D01*
X210518880Y-82426028D01*
X210394398Y-82438288D01*
X210274700Y-82474598D01*
X210164386Y-82533563D01*
X210067695Y-82612915D01*
X209988343Y-82709606D01*
X209929378Y-82819920D01*
X209893068Y-82939618D01*
X209880808Y-83064100D01*
X188519340Y-83064100D01*
X188519340Y-77601302D01*
X188523016Y-77563979D01*
X188519340Y-77526656D01*
X188519340Y-77526647D01*
X188508343Y-77414994D01*
X188464886Y-77271733D01*
X188394314Y-77139704D01*
X188381151Y-77123665D01*
X188323139Y-77052976D01*
X188323135Y-77052972D01*
X188299341Y-77023979D01*
X188270348Y-77000185D01*
X185337400Y-74067239D01*
X185337400Y-74005101D01*
X185297626Y-73805142D01*
X185219605Y-73616784D01*
X185106337Y-73447266D01*
X184962174Y-73303103D01*
X184792656Y-73189835D01*
X184604298Y-73111814D01*
X184404339Y-73072040D01*
X184200461Y-73072040D01*
X184000502Y-73111814D01*
X183812144Y-73189835D01*
X183642626Y-73303103D01*
X183498463Y-73447266D01*
X183385195Y-73616784D01*
X183307174Y-73805142D01*
X183267400Y-74005101D01*
X181818820Y-74005101D01*
X181818820Y-67380343D01*
X181822496Y-67343020D01*
X181818820Y-67305697D01*
X181818820Y-67305687D01*
X181807823Y-67194034D01*
X181764366Y-67050773D01*
X181693794Y-66918744D01*
X181598821Y-66803019D01*
X181569824Y-66779222D01*
X176742040Y-61951439D01*
X176742040Y-61889301D01*
X176702266Y-61689342D01*
X176624245Y-61500984D01*
X176510977Y-61331466D01*
X176366814Y-61187303D01*
X176197296Y-61074035D01*
X176008938Y-60996014D01*
X175808979Y-60956240D01*
X175605101Y-60956240D01*
X175405142Y-60996014D01*
X175291020Y-61043285D01*
X175291020Y-55849361D01*
X176320882Y-54819500D01*
X176383019Y-54819500D01*
X176582978Y-54779726D01*
X176771336Y-54701705D01*
X176940854Y-54588437D01*
X177085017Y-54444274D01*
X177198285Y-54274756D01*
X177276306Y-54086398D01*
X177316080Y-53886439D01*
X177316080Y-53682561D01*
X177276306Y-53482602D01*
X177198285Y-53294244D01*
X177085017Y-53124726D01*
X176940854Y-52980563D01*
X176771336Y-52867295D01*
X176582978Y-52789274D01*
X176383019Y-52749500D01*
X176179141Y-52749500D01*
X175979182Y-52789274D01*
X175790824Y-52867295D01*
X175621306Y-52980563D01*
X175477143Y-53124726D01*
X175363875Y-53294244D01*
X175285854Y-53482602D01*
X175246080Y-53682561D01*
X175246080Y-53744698D01*
X174020023Y-54970756D01*
X173991019Y-54994559D01*
X173935891Y-55061734D01*
X173896046Y-55110284D01*
X173841143Y-55213000D01*
X173825474Y-55242314D01*
X173782017Y-55385575D01*
X173771020Y-55497228D01*
X173771020Y-55497238D01*
X173767344Y-55534560D01*
X173771020Y-55571883D01*
X173771021Y-62482228D01*
X173767344Y-62519560D01*
X173771021Y-62556893D01*
X173776886Y-62616435D01*
X173782018Y-62668545D01*
X173825474Y-62811806D01*
X173896046Y-62943836D01*
X173963674Y-63026240D01*
X173991020Y-63059561D01*
X174020018Y-63083359D01*
X179409820Y-68473163D01*
X179409821Y-88858140D01*
X179336361Y-88858140D01*
X179136402Y-88897914D01*
X178948044Y-88975935D01*
X178778526Y-89089203D01*
X178734589Y-89133140D01*
X178061462Y-89133140D01*
X170573624Y-81645303D01*
X170549821Y-81616299D01*
X170434096Y-81521326D01*
X170302067Y-81450754D01*
X170158806Y-81407297D01*
X170047153Y-81396300D01*
X170047142Y-81396300D01*
X170009820Y-81392624D01*
X169972498Y-81396300D01*
X164414042Y-81396300D01*
X161144490Y-78126749D01*
X161144490Y-72568292D01*
X161148166Y-72530969D01*
X161144490Y-72493646D01*
X161144490Y-72493637D01*
X161133493Y-72381984D01*
X161090036Y-72238723D01*
X161019464Y-72106694D01*
X161006301Y-72090655D01*
X160948289Y-72019966D01*
X160948285Y-72019962D01*
X160924491Y-71990969D01*
X160895498Y-71967175D01*
X158680639Y-69752318D01*
X158680639Y-62575101D01*
X164928600Y-62575101D01*
X164928600Y-62778979D01*
X164968374Y-62978938D01*
X165046395Y-63167296D01*
X165159663Y-63336814D01*
X165303826Y-63480977D01*
X165473344Y-63594245D01*
X165661702Y-63672266D01*
X165861661Y-63712040D01*
X165974599Y-63712040D01*
X175870920Y-73608362D01*
X175870920Y-73670499D01*
X175910694Y-73870458D01*
X175988715Y-74058816D01*
X176101983Y-74228334D01*
X176246146Y-74372497D01*
X176415664Y-74485765D01*
X176604022Y-74563786D01*
X176803981Y-74603560D01*
X177007859Y-74603560D01*
X177207818Y-74563786D01*
X177396176Y-74485765D01*
X177565694Y-74372497D01*
X177709857Y-74228334D01*
X177823125Y-74058816D01*
X177901146Y-73870458D01*
X177940920Y-73670499D01*
X177940920Y-73466621D01*
X177901146Y-73266662D01*
X177823125Y-73078304D01*
X177709857Y-72908786D01*
X177565694Y-72764623D01*
X177396176Y-72651355D01*
X177207818Y-72573334D01*
X177007859Y-72533560D01*
X176945722Y-72533560D01*
X166998600Y-62586439D01*
X166998600Y-62575101D01*
X166958826Y-62375142D01*
X166880805Y-62186784D01*
X166767537Y-62017266D01*
X166623374Y-61873103D01*
X166453856Y-61759835D01*
X166265498Y-61681814D01*
X166065539Y-61642040D01*
X165861661Y-61642040D01*
X165661702Y-61681814D01*
X165473344Y-61759835D01*
X165303826Y-61873103D01*
X165159663Y-62017266D01*
X165046395Y-62186784D01*
X164968374Y-62375142D01*
X164928600Y-62575101D01*
X158680639Y-62575101D01*
X158680639Y-61890081D01*
X158684315Y-61852758D01*
X158680639Y-61815436D01*
X158680639Y-61815426D01*
X158669642Y-61703773D01*
X158626185Y-61560512D01*
X158555640Y-61428534D01*
X158555640Y-61350821D01*
X158515866Y-61150862D01*
X158437845Y-60962504D01*
X158324577Y-60792986D01*
X158180414Y-60648823D01*
X158010896Y-60535555D01*
X157822538Y-60457534D01*
X157622579Y-60417760D01*
X157418701Y-60417760D01*
X157218742Y-60457534D01*
X157030384Y-60535555D01*
X156860866Y-60648823D01*
X156716703Y-60792986D01*
X156603435Y-60962504D01*
X156525414Y-61150862D01*
X156485640Y-61350821D01*
X118660000Y-61350821D01*
X118660000Y-52778215D01*
X121098560Y-52778215D01*
X121098560Y-53297265D01*
X121199821Y-53806341D01*
X121398453Y-54285881D01*
X121686822Y-54717455D01*
X122053845Y-55084478D01*
X122485419Y-55372847D01*
X122964959Y-55571479D01*
X123474035Y-55672740D01*
X123993085Y-55672740D01*
X124502161Y-55571479D01*
X124981701Y-55372847D01*
X125413275Y-55084478D01*
X125780298Y-54717455D01*
X126068667Y-54285881D01*
X126267299Y-53806341D01*
X126368560Y-53297265D01*
X126368560Y-52778215D01*
X126277113Y-52318475D01*
X209571840Y-52318475D01*
X209571840Y-52837525D01*
X209673101Y-53346601D01*
X209871733Y-53826141D01*
X210160102Y-54257715D01*
X210527125Y-54624738D01*
X210958699Y-54913107D01*
X211438239Y-55111739D01*
X211947315Y-55213000D01*
X212466365Y-55213000D01*
X212975441Y-55111739D01*
X213454981Y-54913107D01*
X213886555Y-54624738D01*
X214253578Y-54257715D01*
X214541947Y-53826141D01*
X214740579Y-53346601D01*
X214841840Y-52837525D01*
X214841840Y-52318475D01*
X214740579Y-51809399D01*
X214541947Y-51329859D01*
X214253578Y-50898285D01*
X213886555Y-50531262D01*
X213454981Y-50242893D01*
X212975441Y-50044261D01*
X212466365Y-49943000D01*
X211947315Y-49943000D01*
X211438239Y-50044261D01*
X210958699Y-50242893D01*
X210527125Y-50531262D01*
X210160102Y-50898285D01*
X209871733Y-51329859D01*
X209673101Y-51809399D01*
X209571840Y-52318475D01*
X126277113Y-52318475D01*
X126267299Y-52269139D01*
X126068667Y-51789599D01*
X125780298Y-51358025D01*
X125413275Y-50991002D01*
X124981701Y-50702633D01*
X124502161Y-50504001D01*
X123993085Y-50402740D01*
X123474035Y-50402740D01*
X122964959Y-50504001D01*
X122485419Y-50702633D01*
X122053845Y-50991002D01*
X121686822Y-51358025D01*
X121398453Y-51789599D01*
X121199821Y-52269139D01*
X121098560Y-52778215D01*
X118660000Y-52778215D01*
X118660000Y-47675400D01*
X217340000Y-47675400D01*
X217340001Y-106355400D01*
X217340001Y-106355400D01*
G37*
X217340001Y-106355400D02*
X118660000Y-106355400D01*
X118660000Y-101269355D01*
X120671840Y-101269355D01*
X120671840Y-101788405D01*
X120773101Y-102297481D01*
X120971733Y-102777021D01*
X121260102Y-103208595D01*
X121627125Y-103575618D01*
X122058699Y-103863987D01*
X122538239Y-104062619D01*
X123047315Y-104163880D01*
X123566365Y-104163880D01*
X124075441Y-104062619D01*
X124554981Y-103863987D01*
X124986555Y-103575618D01*
X125353578Y-103208595D01*
X125641947Y-102777021D01*
X125840579Y-102297481D01*
X125941840Y-101788405D01*
X125941840Y-101431915D01*
X210201760Y-101431915D01*
X210201760Y-101950965D01*
X210303021Y-102460041D01*
X210501653Y-102939581D01*
X210790022Y-103371155D01*
X211157045Y-103738178D01*
X211588619Y-104026547D01*
X212068159Y-104225179D01*
X212577235Y-104326440D01*
X213096285Y-104326440D01*
X213605361Y-104225179D01*
X214084901Y-104026547D01*
X214516475Y-103738178D01*
X214883498Y-103371155D01*
X215171867Y-102939581D01*
X215370499Y-102460041D01*
X215471760Y-101950965D01*
X215471760Y-101431915D01*
X215370499Y-100922839D01*
X215171867Y-100443299D01*
X214883498Y-100011725D01*
X214516475Y-99644702D01*
X214084901Y-99356333D01*
X213605361Y-99157701D01*
X213096285Y-99056440D01*
X212577235Y-99056440D01*
X212068159Y-99157701D01*
X211588619Y-99356333D01*
X211157045Y-99644702D01*
X210790022Y-100011725D01*
X210501653Y-100443299D01*
X210303021Y-100922839D01*
X210201760Y-101431915D01*
X125941840Y-101431915D01*
X125941840Y-101269355D01*
X125840579Y-100760279D01*
X125641947Y-100280739D01*
X125353578Y-99849165D01*
X124986555Y-99482142D01*
X124554981Y-99193773D01*
X124075441Y-98995141D01*
X123566365Y-98893880D01*
X123047315Y-98893880D01*
X122538239Y-98995141D01*
X122058699Y-99193773D01*
X121627125Y-99482142D01*
X121260102Y-99849165D01*
X120971733Y-100280739D01*
X120773101Y-100760279D01*
X120671840Y-101269355D01*
X118660000Y-101269355D01*
X118660000Y-88500200D01*
X121432928Y-88500200D01*
X121445188Y-88624682D01*
X121481498Y-88744380D01*
X121540463Y-88854694D01*
X121619815Y-88951385D01*
X121716506Y-89030737D01*
X121826820Y-89089702D01*
X121946518Y-89126012D01*
X122071000Y-89138272D01*
X123285250Y-89135200D01*
X123444000Y-88976450D01*
X123444000Y-87452200D01*
X123698000Y-87452200D01*
X123698000Y-88976450D01*
X123856750Y-89135200D01*
X125071000Y-89138272D01*
X125195482Y-89126012D01*
X125315180Y-89089702D01*
X125425494Y-89030737D01*
X125522185Y-88951385D01*
X125601537Y-88854694D01*
X125660502Y-88744380D01*
X125696812Y-88624682D01*
X125709072Y-88500200D01*
X125706000Y-87610950D01*
X125547250Y-87452200D01*
X123698000Y-87452200D01*
X123444000Y-87452200D01*
X121594750Y-87452200D01*
X121436000Y-87610950D01*
X121432928Y-88500200D01*
X118660000Y-88500200D01*
X118660000Y-86150200D01*
X121432928Y-86150200D01*
X121436000Y-87039450D01*
X121594750Y-87198200D01*
X123444000Y-87198200D01*
X123444000Y-85673950D01*
X123698000Y-85673950D01*
X123698000Y-87198200D01*
X125547250Y-87198200D01*
X125706000Y-87039450D01*
X125709072Y-86150200D01*
X125696812Y-86025718D01*
X125660502Y-85906020D01*
X125601537Y-85795706D01*
X125522185Y-85699015D01*
X125425494Y-85619663D01*
X125315180Y-85560698D01*
X125195482Y-85524388D01*
X125071000Y-85512128D01*
X123856750Y-85515200D01*
X123698000Y-85673950D01*
X123444000Y-85673950D01*
X123285250Y-85515200D01*
X122071000Y-85512128D01*
X121946518Y-85524388D01*
X121826820Y-85560698D01*
X121716506Y-85619663D01*
X121619815Y-85699015D01*
X121540463Y-85795706D01*
X121481498Y-85906020D01*
X121445188Y-86025718D01*
X121432928Y-86150200D01*
X118660000Y-86150200D01*
X118660000Y-83365200D01*
X121427243Y-83365200D01*
X121462190Y-83720022D01*
X121565688Y-84061208D01*
X121733759Y-84375647D01*
X121959945Y-84651255D01*
X122235553Y-84877441D01*
X122549992Y-85045512D01*
X122891178Y-85149010D01*
X123157089Y-85175200D01*
X123984911Y-85175200D01*
X124250822Y-85149010D01*
X124592008Y-85045512D01*
X124906447Y-84877441D01*
X125182055Y-84651255D01*
X125408241Y-84375647D01*
X125576312Y-84061208D01*
X125679810Y-83720022D01*
X125714757Y-83365200D01*
X125679810Y-83010378D01*
X125576312Y-82669192D01*
X125408241Y-82354753D01*
X125182055Y-82079145D01*
X124906447Y-81852959D01*
X124592008Y-81684888D01*
X124250822Y-81581390D01*
X123984911Y-81555200D01*
X123157089Y-81555200D01*
X122891178Y-81581390D01*
X122549992Y-81684888D01*
X122235553Y-81852959D01*
X121959945Y-82079145D01*
X121733759Y-82354753D01*
X121565688Y-82669192D01*
X121462190Y-83010378D01*
X121427243Y-83365200D01*
X118660000Y-83365200D01*
X118660000Y-61350821D01*
X156485640Y-61350821D01*
X156485640Y-61554699D01*
X156525414Y-61754658D01*
X156603435Y-61943016D01*
X156716703Y-62112534D01*
X156860866Y-62256697D01*
X157030384Y-62369965D01*
X157160639Y-62423919D01*
X157160640Y-70029787D01*
X157156963Y-70067119D01*
X157171637Y-70216104D01*
X157215093Y-70359365D01*
X157285665Y-70491395D01*
X157356840Y-70578121D01*
X157380639Y-70607120D01*
X157409637Y-70630918D01*
X159624491Y-72845774D01*
X159624491Y-72869243D01*
X159456459Y-72835820D01*
X159252581Y-72835820D01*
X159052622Y-72875594D01*
X158864264Y-72953615D01*
X158694746Y-73066883D01*
X158550583Y-73211046D01*
X158437315Y-73380564D01*
X158359294Y-73568922D01*
X158319520Y-73768881D01*
X158319520Y-73972759D01*
X158359294Y-74172718D01*
X158437315Y-74361076D01*
X158550583Y-74530594D01*
X158594521Y-74574532D01*
X158594520Y-79170037D01*
X158590844Y-79207360D01*
X158594520Y-79244682D01*
X158594520Y-79244692D01*
X158605517Y-79356345D01*
X158648974Y-79499606D01*
X158719546Y-79631636D01*
X158759391Y-79680186D01*
X158814519Y-79747361D01*
X158843523Y-79771164D01*
X163012200Y-83939842D01*
X163035999Y-83968841D01*
X163151724Y-84063814D01*
X163283753Y-84134386D01*
X163427014Y-84177843D01*
X163538667Y-84188840D01*
X163538676Y-84188840D01*
X163575999Y-84192516D01*
X163613322Y-84188840D01*
X169199719Y-84188840D01*
X178070419Y-93059542D01*
X178070419Y-93121678D01*
X178110193Y-93321637D01*
X178188214Y-93509995D01*
X178301482Y-93679513D01*
X178445645Y-93823676D01*
X178615163Y-93936944D01*
X178803521Y-94014965D01*
X179003480Y-94054739D01*
X179207358Y-94054739D01*
X179407317Y-94014965D01*
X179409821Y-94013928D01*
X179409821Y-94045908D01*
X179365883Y-94089846D01*
X179252615Y-94259364D01*
X179174594Y-94447722D01*
X179134820Y-94647681D01*
X179134820Y-94851559D01*
X179174594Y-95051518D01*
X179252615Y-95239876D01*
X179365883Y-95409394D01*
X179510046Y-95553557D01*
X179679564Y-95666825D01*
X179867922Y-95744846D01*
X180067881Y-95784620D01*
X180271759Y-95784620D01*
X180471718Y-95744846D01*
X180660076Y-95666825D01*
X180829594Y-95553557D01*
X180973757Y-95409394D01*
X181087025Y-95239876D01*
X181165046Y-95051518D01*
X181204820Y-94851559D01*
X181204820Y-94785256D01*
X181360718Y-94754246D01*
X181549076Y-94676225D01*
X181718594Y-94562957D01*
X181862757Y-94418794D01*
X181976025Y-94249276D01*
X182054046Y-94060918D01*
X182093820Y-93860959D01*
X182093820Y-93657081D01*
X182054046Y-93457122D01*
X181976025Y-93268764D01*
X181862757Y-93099246D01*
X181818820Y-93055309D01*
X181818820Y-74005101D01*
X183267400Y-74005101D01*
X183267400Y-74208979D01*
X183307174Y-74408938D01*
X183385195Y-74597296D01*
X183498463Y-74766814D01*
X183642626Y-74910977D01*
X183812144Y-75024245D01*
X184000502Y-75102266D01*
X184200461Y-75142040D01*
X184262599Y-75142040D01*
X186999341Y-77878784D01*
X186999340Y-94899349D01*
X186955403Y-94943286D01*
X186842135Y-95112804D01*
X186764114Y-95301162D01*
X186724340Y-95501121D01*
X186724340Y-95704999D01*
X186764114Y-95904958D01*
X186842135Y-96093316D01*
X186955403Y-96262834D01*
X187099566Y-96406997D01*
X187269084Y-96520265D01*
X187457442Y-96598286D01*
X187657401Y-96638060D01*
X187861279Y-96638060D01*
X188061238Y-96598286D01*
X188249596Y-96520265D01*
X188419114Y-96406997D01*
X188563277Y-96262834D01*
X188676545Y-96093316D01*
X188754566Y-95904958D01*
X188794340Y-95704999D01*
X188794340Y-95501121D01*
X188754566Y-95301162D01*
X188676545Y-95112804D01*
X188563277Y-94943286D01*
X188519340Y-94899349D01*
X188519340Y-88199100D01*
X209875123Y-88199100D01*
X209910070Y-88553922D01*
X210013568Y-88895108D01*
X210181639Y-89209547D01*
X210407825Y-89485155D01*
X210683433Y-89711341D01*
X210997872Y-89879412D01*
X211339058Y-89982910D01*
X211604969Y-90009100D01*
X212432791Y-90009100D01*
X212698702Y-89982910D01*
X213039888Y-89879412D01*
X213354327Y-89711341D01*
X213629935Y-89485155D01*
X213856121Y-89209547D01*
X214024192Y-88895108D01*
X214127690Y-88553922D01*
X214162637Y-88199100D01*
X214127690Y-87844278D01*
X214024192Y-87503092D01*
X213856121Y-87188653D01*
X213629935Y-86913045D01*
X213354327Y-86686859D01*
X213039888Y-86518788D01*
X212698702Y-86415290D01*
X212432791Y-86389100D01*
X211604969Y-86389100D01*
X211339058Y-86415290D01*
X210997872Y-86518788D01*
X210683433Y-86686859D01*
X210407825Y-86913045D01*
X210181639Y-87188653D01*
X210013568Y-87503092D01*
X209910070Y-87844278D01*
X209875123Y-88199100D01*
X188519340Y-88199100D01*
X188519340Y-85414100D01*
X209880808Y-85414100D01*
X209893068Y-85538582D01*
X209929378Y-85658280D01*
X209988343Y-85768594D01*
X210067695Y-85865285D01*
X210164386Y-85944637D01*
X210274700Y-86003602D01*
X210394398Y-86039912D01*
X210518880Y-86052172D01*
X211733130Y-86049100D01*
X211891880Y-85890350D01*
X211891880Y-84366100D01*
X212145880Y-84366100D01*
X212145880Y-85890350D01*
X212304630Y-86049100D01*
X213518880Y-86052172D01*
X213643362Y-86039912D01*
X213763060Y-86003602D01*
X213873374Y-85944637D01*
X213970065Y-85865285D01*
X214049417Y-85768594D01*
X214108382Y-85658280D01*
X214144692Y-85538582D01*
X214156952Y-85414100D01*
X214153880Y-84524850D01*
X213995130Y-84366100D01*
X212145880Y-84366100D01*
X211891880Y-84366100D01*
X210042630Y-84366100D01*
X209883880Y-84524850D01*
X209880808Y-85414100D01*
X188519340Y-85414100D01*
X188519340Y-83064100D01*
X209880808Y-83064100D01*
X209883880Y-83953350D01*
X210042630Y-84112100D01*
X211891880Y-84112100D01*
X211891880Y-82587850D01*
X212145880Y-82587850D01*
X212145880Y-84112100D01*
X213995130Y-84112100D01*
X214153880Y-83953350D01*
X214156952Y-83064100D01*
X214144692Y-82939618D01*
X214108382Y-82819920D01*
X214049417Y-82709606D01*
X213970065Y-82612915D01*
X213873374Y-82533563D01*
X213763060Y-82474598D01*
X213643362Y-82438288D01*
X213518880Y-82426028D01*
X212304630Y-82429100D01*
X212145880Y-82587850D01*
X211891880Y-82587850D01*
X211733130Y-82429100D01*
X210518880Y-82426028D01*
X210394398Y-82438288D01*
X210274700Y-82474598D01*
X210164386Y-82533563D01*
X210067695Y-82612915D01*
X209988343Y-82709606D01*
X209929378Y-82819920D01*
X209893068Y-82939618D01*
X209880808Y-83064100D01*
X188519340Y-83064100D01*
X188519340Y-77601302D01*
X188523016Y-77563979D01*
X188519340Y-77526656D01*
X188519340Y-77526647D01*
X188508343Y-77414994D01*
X188464886Y-77271733D01*
X188394314Y-77139704D01*
X188381151Y-77123665D01*
X188323139Y-77052976D01*
X188323135Y-77052972D01*
X188299341Y-77023979D01*
X188270348Y-77000185D01*
X185337400Y-74067239D01*
X185337400Y-74005101D01*
X185297626Y-73805142D01*
X185219605Y-73616784D01*
X185106337Y-73447266D01*
X184962174Y-73303103D01*
X184792656Y-73189835D01*
X184604298Y-73111814D01*
X184404339Y-73072040D01*
X184200461Y-73072040D01*
X184000502Y-73111814D01*
X183812144Y-73189835D01*
X183642626Y-73303103D01*
X183498463Y-73447266D01*
X183385195Y-73616784D01*
X183307174Y-73805142D01*
X183267400Y-74005101D01*
X181818820Y-74005101D01*
X181818820Y-67380343D01*
X181822496Y-67343020D01*
X181818820Y-67305697D01*
X181818820Y-67305687D01*
X181807823Y-67194034D01*
X181764366Y-67050773D01*
X181693794Y-66918744D01*
X181598821Y-66803019D01*
X181569824Y-66779222D01*
X176742040Y-61951439D01*
X176742040Y-61889301D01*
X176702266Y-61689342D01*
X176624245Y-61500984D01*
X176510977Y-61331466D01*
X176366814Y-61187303D01*
X176197296Y-61074035D01*
X176008938Y-60996014D01*
X175808979Y-60956240D01*
X175605101Y-60956240D01*
X175405142Y-60996014D01*
X175291020Y-61043285D01*
X175291020Y-55849361D01*
X176320882Y-54819500D01*
X176383019Y-54819500D01*
X176582978Y-54779726D01*
X176771336Y-54701705D01*
X176940854Y-54588437D01*
X177085017Y-54444274D01*
X177198285Y-54274756D01*
X177276306Y-54086398D01*
X177316080Y-53886439D01*
X177316080Y-53682561D01*
X177276306Y-53482602D01*
X177198285Y-53294244D01*
X177085017Y-53124726D01*
X176940854Y-52980563D01*
X176771336Y-52867295D01*
X176582978Y-52789274D01*
X176383019Y-52749500D01*
X176179141Y-52749500D01*
X175979182Y-52789274D01*
X175790824Y-52867295D01*
X175621306Y-52980563D01*
X175477143Y-53124726D01*
X175363875Y-53294244D01*
X175285854Y-53482602D01*
X175246080Y-53682561D01*
X175246080Y-53744698D01*
X174020023Y-54970756D01*
X173991019Y-54994559D01*
X173935891Y-55061734D01*
X173896046Y-55110284D01*
X173841143Y-55213000D01*
X173825474Y-55242314D01*
X173782017Y-55385575D01*
X173771020Y-55497228D01*
X173771020Y-55497238D01*
X173767344Y-55534560D01*
X173771020Y-55571883D01*
X173771021Y-62482228D01*
X173767344Y-62519560D01*
X173771021Y-62556893D01*
X173776886Y-62616435D01*
X173782018Y-62668545D01*
X173825474Y-62811806D01*
X173896046Y-62943836D01*
X173963674Y-63026240D01*
X173991020Y-63059561D01*
X174020018Y-63083359D01*
X179409820Y-68473163D01*
X179409821Y-88858140D01*
X179336361Y-88858140D01*
X179136402Y-88897914D01*
X178948044Y-88975935D01*
X178778526Y-89089203D01*
X178734589Y-89133140D01*
X178061462Y-89133140D01*
X170573624Y-81645303D01*
X170549821Y-81616299D01*
X170434096Y-81521326D01*
X170302067Y-81450754D01*
X170158806Y-81407297D01*
X170047153Y-81396300D01*
X170047142Y-81396300D01*
X170009820Y-81392624D01*
X169972498Y-81396300D01*
X164414042Y-81396300D01*
X161144490Y-78126749D01*
X161144490Y-72568292D01*
X161148166Y-72530969D01*
X161144490Y-72493646D01*
X161144490Y-72493637D01*
X161133493Y-72381984D01*
X161090036Y-72238723D01*
X161019464Y-72106694D01*
X161006301Y-72090655D01*
X160948289Y-72019966D01*
X160948285Y-72019962D01*
X160924491Y-71990969D01*
X160895498Y-71967175D01*
X158680639Y-69752318D01*
X158680639Y-62575101D01*
X164928600Y-62575101D01*
X164928600Y-62778979D01*
X164968374Y-62978938D01*
X165046395Y-63167296D01*
X165159663Y-63336814D01*
X165303826Y-63480977D01*
X165473344Y-63594245D01*
X165661702Y-63672266D01*
X165861661Y-63712040D01*
X165974599Y-63712040D01*
X175870920Y-73608362D01*
X175870920Y-73670499D01*
X175910694Y-73870458D01*
X175988715Y-74058816D01*
X176101983Y-74228334D01*
X176246146Y-74372497D01*
X176415664Y-74485765D01*
X176604022Y-74563786D01*
X176803981Y-74603560D01*
X177007859Y-74603560D01*
X177207818Y-74563786D01*
X177396176Y-74485765D01*
X177565694Y-74372497D01*
X177709857Y-74228334D01*
X177823125Y-74058816D01*
X177901146Y-73870458D01*
X177940920Y-73670499D01*
X177940920Y-73466621D01*
X177901146Y-73266662D01*
X177823125Y-73078304D01*
X177709857Y-72908786D01*
X177565694Y-72764623D01*
X177396176Y-72651355D01*
X177207818Y-72573334D01*
X177007859Y-72533560D01*
X176945722Y-72533560D01*
X166998600Y-62586439D01*
X166998600Y-62575101D01*
X166958826Y-62375142D01*
X166880805Y-62186784D01*
X166767537Y-62017266D01*
X166623374Y-61873103D01*
X166453856Y-61759835D01*
X166265498Y-61681814D01*
X166065539Y-61642040D01*
X165861661Y-61642040D01*
X165661702Y-61681814D01*
X165473344Y-61759835D01*
X165303826Y-61873103D01*
X165159663Y-62017266D01*
X165046395Y-62186784D01*
X164968374Y-62375142D01*
X164928600Y-62575101D01*
X158680639Y-62575101D01*
X158680639Y-61890081D01*
X158684315Y-61852758D01*
X158680639Y-61815436D01*
X158680639Y-61815426D01*
X158669642Y-61703773D01*
X158626185Y-61560512D01*
X158555640Y-61428534D01*
X158555640Y-61350821D01*
X158515866Y-61150862D01*
X158437845Y-60962504D01*
X158324577Y-60792986D01*
X158180414Y-60648823D01*
X158010896Y-60535555D01*
X157822538Y-60457534D01*
X157622579Y-60417760D01*
X157418701Y-60417760D01*
X157218742Y-60457534D01*
X157030384Y-60535555D01*
X156860866Y-60648823D01*
X156716703Y-60792986D01*
X156603435Y-60962504D01*
X156525414Y-61150862D01*
X156485640Y-61350821D01*
X118660000Y-61350821D01*
X118660000Y-52778215D01*
X121098560Y-52778215D01*
X121098560Y-53297265D01*
X121199821Y-53806341D01*
X121398453Y-54285881D01*
X121686822Y-54717455D01*
X122053845Y-55084478D01*
X122485419Y-55372847D01*
X122964959Y-55571479D01*
X123474035Y-55672740D01*
X123993085Y-55672740D01*
X124502161Y-55571479D01*
X124981701Y-55372847D01*
X125413275Y-55084478D01*
X125780298Y-54717455D01*
X126068667Y-54285881D01*
X126267299Y-53806341D01*
X126368560Y-53297265D01*
X126368560Y-52778215D01*
X126277113Y-52318475D01*
X209571840Y-52318475D01*
X209571840Y-52837525D01*
X209673101Y-53346601D01*
X209871733Y-53826141D01*
X210160102Y-54257715D01*
X210527125Y-54624738D01*
X210958699Y-54913107D01*
X211438239Y-55111739D01*
X211947315Y-55213000D01*
X212466365Y-55213000D01*
X212975441Y-55111739D01*
X213454981Y-54913107D01*
X213886555Y-54624738D01*
X214253578Y-54257715D01*
X214541947Y-53826141D01*
X214740579Y-53346601D01*
X214841840Y-52837525D01*
X214841840Y-52318475D01*
X214740579Y-51809399D01*
X214541947Y-51329859D01*
X214253578Y-50898285D01*
X213886555Y-50531262D01*
X213454981Y-50242893D01*
X212975441Y-50044261D01*
X212466365Y-49943000D01*
X211947315Y-49943000D01*
X211438239Y-50044261D01*
X210958699Y-50242893D01*
X210527125Y-50531262D01*
X210160102Y-50898285D01*
X209871733Y-51329859D01*
X209673101Y-51809399D01*
X209571840Y-52318475D01*
X126277113Y-52318475D01*
X126267299Y-52269139D01*
X126068667Y-51789599D01*
X125780298Y-51358025D01*
X125413275Y-50991002D01*
X124981701Y-50702633D01*
X124502161Y-50504001D01*
X123993085Y-50402740D01*
X123474035Y-50402740D01*
X122964959Y-50504001D01*
X122485419Y-50702633D01*
X122053845Y-50991002D01*
X121686822Y-51358025D01*
X121398453Y-51789599D01*
X121199821Y-52269139D01*
X121098560Y-52778215D01*
X118660000Y-52778215D01*
X118660000Y-47675400D01*
X217340000Y-47675400D01*
X217340001Y-106355400D01*
M02*
