G04 #@! TF.GenerationSoftware,KiCad,Pcbnew,(5.1.0-0)*
G04 #@! TF.CreationDate,2019-05-11T18:03:57+01:00*
G04 #@! TF.ProjectId,LTC3780,4c544333-3738-4302-9e6b-696361645f70,rev?*
G04 #@! TF.SameCoordinates,Original*
G04 #@! TF.FileFunction,Paste,Top*
G04 #@! TF.FilePolarity,Positive*
%FSLAX46Y46*%
G04 Gerber Fmt 4.6, Leading zero omitted, Abs format (unit mm)*
G04 Created by KiCad (PCBNEW (5.1.0-0)) date 2019-05-11 18:03:57*
%MOMM*%
%LPD*%
G04 APERTURE LIST*
%ADD10R,3.500000X1.800000*%
%ADD11R,1.200000X0.900000*%
%ADD12R,2.200000X1.200000*%
%ADD13R,3.050000X2.750000*%
%ADD14R,0.900000X1.200000*%
%ADD15R,0.980000X3.700000*%
%ADD16R,0.900000X0.800000*%
%ADD17R,1.000000X1.000000*%
%ADD18R,1.651000X0.431800*%
%ADD19R,3.200000X2.700000*%
%ADD20R,2.500000X4.000000*%
%ADD21R,1.200000X0.750000*%
%ADD22R,0.750000X1.200000*%
G04 APERTURE END LIST*
D10*
X147288880Y-65107820D03*
X152288880Y-65107820D03*
D11*
X188015880Y-97270840D03*
X188015880Y-93970840D03*
D12*
X155121720Y-61451840D03*
X155121720Y-56891840D03*
D13*
X147146720Y-57646840D03*
X150496720Y-60696840D03*
X147146720Y-60696840D03*
X150496720Y-57646840D03*
D11*
X171523840Y-97068640D03*
X169323840Y-97068640D03*
D14*
X171704000Y-103063220D03*
X171704000Y-100863220D03*
D15*
X169774960Y-58102500D03*
X167404960Y-58102500D03*
D10*
X184452260Y-69517260D03*
X179452260Y-69517260D03*
D11*
X182468520Y-87154020D03*
X182468520Y-83854020D03*
D16*
X168085260Y-102113040D03*
X168085260Y-104013040D03*
X170085260Y-103063040D03*
D17*
X171663680Y-98938080D03*
X169163680Y-98938080D03*
D18*
X182905400Y-89204800D03*
X182905400Y-89865200D03*
X182905400Y-90500200D03*
X182905400Y-91160600D03*
X182905400Y-91821000D03*
X182905400Y-92456000D03*
X182905400Y-93116400D03*
X182905400Y-93751400D03*
X182905400Y-94411800D03*
X182905400Y-95072200D03*
X182905400Y-95707200D03*
X182905400Y-96367600D03*
X175641000Y-96367600D03*
X175641000Y-95707200D03*
X175641000Y-95072200D03*
X175641000Y-94411800D03*
X175641000Y-93751400D03*
X175641000Y-93116400D03*
X175641000Y-92456000D03*
X175641000Y-91821000D03*
X175641000Y-91160600D03*
X175641000Y-90500200D03*
X175641000Y-89865200D03*
X175641000Y-89204800D03*
D11*
X178107520Y-99809300D03*
X175907520Y-99809300D03*
X190299160Y-93886020D03*
X192499160Y-93886020D03*
D19*
X170746420Y-68506340D03*
X170746420Y-76406340D03*
X165910260Y-68495880D03*
X165910260Y-76395880D03*
D11*
X194043120Y-95351600D03*
X196243120Y-95351600D03*
X169372100Y-93929200D03*
X171572100Y-93929200D03*
X169372100Y-92443300D03*
X171572100Y-92443300D03*
X169354320Y-95440500D03*
X171554320Y-95440500D03*
D14*
X176933860Y-85603260D03*
X176933860Y-83403260D03*
X166151560Y-90777240D03*
X166151560Y-88577240D03*
D11*
X167426820Y-86288880D03*
X165226820Y-86288880D03*
D14*
X166004240Y-94030620D03*
X166004240Y-96230620D03*
D11*
X191338380Y-88198960D03*
X189138380Y-88198960D03*
X171549240Y-90916760D03*
X169349240Y-90916760D03*
X171544160Y-89405460D03*
X169344160Y-89405460D03*
X179598500Y-87388700D03*
X177398500Y-87388700D03*
D20*
X131292600Y-66596800D03*
X131292600Y-72696800D03*
X211328000Y-67958240D03*
X211328000Y-74058240D03*
D21*
X175907660Y-98343720D03*
X177807660Y-98343720D03*
D22*
X185994040Y-96624180D03*
X185994040Y-94724180D03*
D21*
X190261200Y-96901000D03*
X192161200Y-96901000D03*
X190286600Y-95326200D03*
X192186600Y-95326200D03*
X181594720Y-98191320D03*
X183494720Y-98191320D03*
X187744060Y-92450920D03*
X189644060Y-92450920D03*
X167485100Y-92412820D03*
X165585100Y-92412820D03*
D22*
X167675560Y-94076480D03*
X167675560Y-95976480D03*
D21*
X189656760Y-91066620D03*
X187756760Y-91066620D03*
X189146140Y-89662000D03*
X191046140Y-89662000D03*
D22*
X178465480Y-85587880D03*
X178465480Y-83687880D03*
X175303180Y-83510080D03*
X175303180Y-85410080D03*
X167667940Y-88879640D03*
X167667940Y-90779640D03*
D21*
X171460200Y-87863680D03*
X169560200Y-87863680D03*
D22*
X123771660Y-65633560D03*
X123771660Y-67533560D03*
X125547120Y-65590380D03*
X125547120Y-67490380D03*
X121968260Y-65625940D03*
X121968260Y-67525940D03*
D21*
X185409800Y-89156540D03*
X187309800Y-89156540D03*
D22*
X199158860Y-64236640D03*
X199158860Y-62336640D03*
X202382120Y-64234100D03*
X202382120Y-62334100D03*
X200756520Y-64234100D03*
X200756520Y-62334100D03*
D13*
X183498040Y-57570100D03*
X186848040Y-54520100D03*
X183498040Y-54520100D03*
X186848040Y-57570100D03*
D12*
X178873040Y-58325100D03*
X178873040Y-53765100D03*
D13*
X152305200Y-69267340D03*
X148955200Y-72317340D03*
X152305200Y-72317340D03*
X148955200Y-69267340D03*
D12*
X156930200Y-68512340D03*
X156930200Y-73072340D03*
X178797420Y-61400340D03*
X178797420Y-65960340D03*
D13*
X186772420Y-65205340D03*
X183422420Y-62155340D03*
X186772420Y-62155340D03*
X183422420Y-65205340D03*
D20*
X201927460Y-74086720D03*
X201927460Y-67986720D03*
X140047980Y-72691720D03*
X140047980Y-66591720D03*
M02*
