G04 #@! TF.GenerationSoftware,KiCad,Pcbnew,(5.1.0-0)*
G04 #@! TF.CreationDate,2019-05-04T19:21:20+01:00*
G04 #@! TF.ProjectId,LTC3780,4c544333-3738-4302-9e6b-696361645f70,rev?*
G04 #@! TF.SameCoordinates,Original*
G04 #@! TF.FileFunction,Soldermask,Bot*
G04 #@! TF.FilePolarity,Negative*
%FSLAX46Y46*%
G04 Gerber Fmt 4.6, Leading zero omitted, Abs format (unit mm)*
G04 Created by KiCad (PCBNEW (5.1.0-0)) date 2019-05-04 19:21:20*
%MOMM*%
%LPD*%
G04 APERTURE LIST*
%ADD10C,0.100000*%
G04 APERTURE END LIST*
D10*
G36*
X178400059Y-103130840D02*
G01*
X178536732Y-103187452D01*
X178659735Y-103269640D01*
X178764340Y-103374245D01*
X178846528Y-103497248D01*
X178903140Y-103633921D01*
X178932000Y-103779013D01*
X178932000Y-103926947D01*
X178903140Y-104072039D01*
X178846528Y-104208712D01*
X178764340Y-104331715D01*
X178659735Y-104436320D01*
X178536732Y-104518508D01*
X178536731Y-104518509D01*
X178536730Y-104518509D01*
X178400059Y-104575120D01*
X178254968Y-104603980D01*
X178107032Y-104603980D01*
X177961941Y-104575120D01*
X177825270Y-104518509D01*
X177825269Y-104518509D01*
X177825268Y-104518508D01*
X177702265Y-104436320D01*
X177597660Y-104331715D01*
X177515472Y-104208712D01*
X177458860Y-104072039D01*
X177430000Y-103926947D01*
X177430000Y-103779013D01*
X177458860Y-103633921D01*
X177515472Y-103497248D01*
X177597660Y-103374245D01*
X177702265Y-103269640D01*
X177825268Y-103187452D01*
X177961941Y-103130840D01*
X178107032Y-103101980D01*
X178254968Y-103101980D01*
X178400059Y-103130840D01*
X178400059Y-103130840D01*
G37*
G36*
X175860059Y-103130840D02*
G01*
X175996732Y-103187452D01*
X176119735Y-103269640D01*
X176224340Y-103374245D01*
X176306528Y-103497248D01*
X176363140Y-103633921D01*
X176392000Y-103779013D01*
X176392000Y-103926947D01*
X176363140Y-104072039D01*
X176306528Y-104208712D01*
X176224340Y-104331715D01*
X176119735Y-104436320D01*
X175996732Y-104518508D01*
X175996731Y-104518509D01*
X175996730Y-104518509D01*
X175860059Y-104575120D01*
X175714968Y-104603980D01*
X175567032Y-104603980D01*
X175421941Y-104575120D01*
X175285270Y-104518509D01*
X175285269Y-104518509D01*
X175285268Y-104518508D01*
X175162265Y-104436320D01*
X175057660Y-104331715D01*
X174975472Y-104208712D01*
X174918860Y-104072039D01*
X174890000Y-103926947D01*
X174890000Y-103779013D01*
X174918860Y-103633921D01*
X174975472Y-103497248D01*
X175057660Y-103374245D01*
X175162265Y-103269640D01*
X175285268Y-103187452D01*
X175421941Y-103130840D01*
X175567032Y-103101980D01*
X175714968Y-103101980D01*
X175860059Y-103130840D01*
X175860059Y-103130840D01*
G37*
G36*
X212439438Y-55141779D02*
G01*
X212670540Y-55211883D01*
X212883525Y-55325726D01*
X213070207Y-55478933D01*
X213223414Y-55665615D01*
X213337257Y-55878600D01*
X213407361Y-56109702D01*
X213431032Y-56350040D01*
X213407361Y-56590378D01*
X213337257Y-56821480D01*
X213223414Y-57034465D01*
X213070207Y-57221147D01*
X212883525Y-57374354D01*
X212670540Y-57488197D01*
X212439438Y-57558301D01*
X212259329Y-57576040D01*
X211488871Y-57576040D01*
X211308762Y-57558301D01*
X211077660Y-57488197D01*
X210864675Y-57374354D01*
X210677993Y-57221147D01*
X210524786Y-57034465D01*
X210410943Y-56821480D01*
X210340839Y-56590378D01*
X210317168Y-56350040D01*
X210340839Y-56109702D01*
X210410943Y-55878600D01*
X210524786Y-55665615D01*
X210677993Y-55478933D01*
X210864675Y-55325726D01*
X211077660Y-55211883D01*
X211308762Y-55141779D01*
X211488871Y-55124040D01*
X212259329Y-55124040D01*
X212439438Y-55141779D01*
X212439438Y-55141779D01*
G37*
G36*
X125853520Y-56201900D02*
G01*
X122751520Y-56201900D01*
X122751520Y-53749900D01*
X125853520Y-53749900D01*
X125853520Y-56201900D01*
X125853520Y-56201900D01*
G37*
G36*
X213425100Y-53616040D02*
G01*
X210323100Y-53616040D01*
X210323100Y-51164040D01*
X213425100Y-51164040D01*
X213425100Y-53616040D01*
X213425100Y-53616040D01*
G37*
G36*
X124867858Y-49807639D02*
G01*
X125098960Y-49877743D01*
X125311945Y-49991586D01*
X125498627Y-50144793D01*
X125651834Y-50331475D01*
X125765677Y-50544460D01*
X125835781Y-50775562D01*
X125859452Y-51015900D01*
X125835781Y-51256238D01*
X125765677Y-51487340D01*
X125651834Y-51700325D01*
X125498627Y-51887007D01*
X125311945Y-52040214D01*
X125098960Y-52154057D01*
X124867858Y-52224161D01*
X124687749Y-52241900D01*
X123917291Y-52241900D01*
X123737182Y-52224161D01*
X123506080Y-52154057D01*
X123293095Y-52040214D01*
X123106413Y-51887007D01*
X122953206Y-51700325D01*
X122839363Y-51487340D01*
X122769259Y-51256238D01*
X122745588Y-51015900D01*
X122769259Y-50775562D01*
X122839363Y-50544460D01*
X122953206Y-50331475D01*
X123106413Y-50144793D01*
X123293095Y-49991586D01*
X123506080Y-49877743D01*
X123737182Y-49807639D01*
X123917291Y-49789900D01*
X124687749Y-49789900D01*
X124867858Y-49807639D01*
X124867858Y-49807639D01*
G37*
M02*
