G04 #@! TF.GenerationSoftware,KiCad,Pcbnew,(5.1.0-0)*
G04 #@! TF.CreationDate,2019-05-04T19:02:41+01:00*
G04 #@! TF.ProjectId,LTC3780,4c544333-3738-4302-9e6b-696361645f70,rev?*
G04 #@! TF.SameCoordinates,Original*
G04 #@! TF.FileFunction,Soldermask,Bot*
G04 #@! TF.FilePolarity,Negative*
%FSLAX46Y46*%
G04 Gerber Fmt 4.6, Leading zero omitted, Abs format (unit mm)*
G04 Created by KiCad (PCBNEW (5.1.0-0)) date 2019-05-04 19:02:41*
%MOMM*%
%LPD*%
G04 APERTURE LIST*
%ADD10C,0.100000*%
G04 APERTURE END LIST*
D10*
G36*
X178400059Y-103130840D02*
G01*
X178536732Y-103187452D01*
X178659735Y-103269640D01*
X178764340Y-103374245D01*
X178846528Y-103497248D01*
X178903140Y-103633921D01*
X178932000Y-103779013D01*
X178932000Y-103926947D01*
X178903140Y-104072039D01*
X178846528Y-104208712D01*
X178764340Y-104331715D01*
X178659735Y-104436320D01*
X178536732Y-104518508D01*
X178536731Y-104518509D01*
X178536730Y-104518509D01*
X178400059Y-104575120D01*
X178254968Y-104603980D01*
X178107032Y-104603980D01*
X177961941Y-104575120D01*
X177825270Y-104518509D01*
X177825269Y-104518509D01*
X177825268Y-104518508D01*
X177702265Y-104436320D01*
X177597660Y-104331715D01*
X177515472Y-104208712D01*
X177458860Y-104072039D01*
X177430000Y-103926947D01*
X177430000Y-103779013D01*
X177458860Y-103633921D01*
X177515472Y-103497248D01*
X177597660Y-103374245D01*
X177702265Y-103269640D01*
X177825268Y-103187452D01*
X177961941Y-103130840D01*
X178107032Y-103101980D01*
X178254968Y-103101980D01*
X178400059Y-103130840D01*
X178400059Y-103130840D01*
G37*
G36*
X175860059Y-103130840D02*
G01*
X175996732Y-103187452D01*
X176119735Y-103269640D01*
X176224340Y-103374245D01*
X176306528Y-103497248D01*
X176363140Y-103633921D01*
X176392000Y-103779013D01*
X176392000Y-103926947D01*
X176363140Y-104072039D01*
X176306528Y-104208712D01*
X176224340Y-104331715D01*
X176119735Y-104436320D01*
X175996732Y-104518508D01*
X175996731Y-104518509D01*
X175996730Y-104518509D01*
X175860059Y-104575120D01*
X175714968Y-104603980D01*
X175567032Y-104603980D01*
X175421941Y-104575120D01*
X175285270Y-104518509D01*
X175285269Y-104518509D01*
X175285268Y-104518508D01*
X175162265Y-104436320D01*
X175057660Y-104331715D01*
X174975472Y-104208712D01*
X174918860Y-104072039D01*
X174890000Y-103926947D01*
X174890000Y-103779013D01*
X174918860Y-103633921D01*
X174975472Y-103497248D01*
X175057660Y-103374245D01*
X175162265Y-103269640D01*
X175285268Y-103187452D01*
X175421941Y-103130840D01*
X175567032Y-103101980D01*
X175714968Y-103101980D01*
X175860059Y-103130840D01*
X175860059Y-103130840D01*
G37*
G36*
X115947520Y-67893380D02*
G01*
X112845520Y-67893380D01*
X112845520Y-65441380D01*
X115947520Y-65441380D01*
X115947520Y-67893380D01*
X115947520Y-67893380D01*
G37*
G36*
X224103118Y-63361219D02*
G01*
X224334220Y-63431323D01*
X224547205Y-63545166D01*
X224733887Y-63698373D01*
X224887094Y-63885055D01*
X225000937Y-64098040D01*
X225071041Y-64329142D01*
X225094712Y-64569480D01*
X225071041Y-64809818D01*
X225000937Y-65040920D01*
X224887094Y-65253905D01*
X224733887Y-65440587D01*
X224547205Y-65593794D01*
X224334220Y-65707637D01*
X224103118Y-65777741D01*
X223923009Y-65795480D01*
X223152551Y-65795480D01*
X222972442Y-65777741D01*
X222741340Y-65707637D01*
X222528355Y-65593794D01*
X222341673Y-65440587D01*
X222188466Y-65253905D01*
X222074623Y-65040920D01*
X222004519Y-64809818D01*
X221980848Y-64569480D01*
X222004519Y-64329142D01*
X222074623Y-64098040D01*
X222188466Y-63885055D01*
X222341673Y-63698373D01*
X222528355Y-63545166D01*
X222741340Y-63431323D01*
X222972442Y-63361219D01*
X223152551Y-63343480D01*
X223923009Y-63343480D01*
X224103118Y-63361219D01*
X224103118Y-63361219D01*
G37*
G36*
X114961858Y-61499119D02*
G01*
X115192960Y-61569223D01*
X115405945Y-61683066D01*
X115592627Y-61836273D01*
X115745834Y-62022955D01*
X115859677Y-62235940D01*
X115929781Y-62467042D01*
X115953452Y-62707380D01*
X115929781Y-62947718D01*
X115859677Y-63178820D01*
X115745834Y-63391805D01*
X115592627Y-63578487D01*
X115405945Y-63731694D01*
X115192960Y-63845537D01*
X114961858Y-63915641D01*
X114781749Y-63933380D01*
X114011291Y-63933380D01*
X113831182Y-63915641D01*
X113600080Y-63845537D01*
X113387095Y-63731694D01*
X113200413Y-63578487D01*
X113047206Y-63391805D01*
X112933363Y-63178820D01*
X112863259Y-62947718D01*
X112839588Y-62707380D01*
X112863259Y-62467042D01*
X112933363Y-62235940D01*
X113047206Y-62022955D01*
X113200413Y-61836273D01*
X113387095Y-61683066D01*
X113600080Y-61569223D01*
X113831182Y-61499119D01*
X114011291Y-61481380D01*
X114781749Y-61481380D01*
X114961858Y-61499119D01*
X114961858Y-61499119D01*
G37*
G36*
X225088780Y-61835480D02*
G01*
X221986780Y-61835480D01*
X221986780Y-59383480D01*
X225088780Y-59383480D01*
X225088780Y-61835480D01*
X225088780Y-61835480D01*
G37*
M02*
