G04 #@! TF.GenerationSoftware,KiCad,Pcbnew,(5.1.0-0)*
G04 #@! TF.CreationDate,2019-05-04T19:21:20+01:00*
G04 #@! TF.ProjectId,LTC3780,4c544333-3738-4302-9e6b-696361645f70,rev?*
G04 #@! TF.SameCoordinates,Original*
G04 #@! TF.FileFunction,Soldermask,Top*
G04 #@! TF.FilePolarity,Negative*
%FSLAX46Y46*%
G04 Gerber Fmt 4.6, Leading zero omitted, Abs format (unit mm)*
G04 Created by KiCad (PCBNEW (5.1.0-0)) date 2019-05-04 19:21:20*
%MOMM*%
%LPD*%
G04 APERTURE LIST*
%ADD10C,0.100000*%
G04 APERTURE END LIST*
D10*
G36*
X178400059Y-103130840D02*
G01*
X178536732Y-103187452D01*
X178659735Y-103269640D01*
X178764340Y-103374245D01*
X178846528Y-103497248D01*
X178903140Y-103633921D01*
X178932000Y-103779013D01*
X178932000Y-103926947D01*
X178903140Y-104072039D01*
X178846528Y-104208712D01*
X178764340Y-104331715D01*
X178659735Y-104436320D01*
X178536732Y-104518508D01*
X178536731Y-104518509D01*
X178536730Y-104518509D01*
X178400059Y-104575120D01*
X178254968Y-104603980D01*
X178107032Y-104603980D01*
X177961941Y-104575120D01*
X177825270Y-104518509D01*
X177825269Y-104518509D01*
X177825268Y-104518508D01*
X177702265Y-104436320D01*
X177597660Y-104331715D01*
X177515472Y-104208712D01*
X177458860Y-104072039D01*
X177430000Y-103926947D01*
X177430000Y-103779013D01*
X177458860Y-103633921D01*
X177515472Y-103497248D01*
X177597660Y-103374245D01*
X177702265Y-103269640D01*
X177825268Y-103187452D01*
X177961941Y-103130840D01*
X178107032Y-103101980D01*
X178254968Y-103101980D01*
X178400059Y-103130840D01*
X178400059Y-103130840D01*
G37*
G36*
X175860059Y-103130840D02*
G01*
X175996732Y-103187452D01*
X176119735Y-103269640D01*
X176224340Y-103374245D01*
X176306528Y-103497248D01*
X176363140Y-103633921D01*
X176392000Y-103779013D01*
X176392000Y-103926947D01*
X176363140Y-104072039D01*
X176306528Y-104208712D01*
X176224340Y-104331715D01*
X176119735Y-104436320D01*
X175996732Y-104518508D01*
X175996731Y-104518509D01*
X175996730Y-104518509D01*
X175860059Y-104575120D01*
X175714968Y-104603980D01*
X175567032Y-104603980D01*
X175421941Y-104575120D01*
X175285270Y-104518509D01*
X175285269Y-104518509D01*
X175285268Y-104518508D01*
X175162265Y-104436320D01*
X175057660Y-104331715D01*
X174975472Y-104208712D01*
X174918860Y-104072039D01*
X174890000Y-103926947D01*
X174890000Y-103779013D01*
X174918860Y-103633921D01*
X174975472Y-103497248D01*
X175057660Y-103374245D01*
X175162265Y-103269640D01*
X175285268Y-103187452D01*
X175421941Y-103130840D01*
X175567032Y-103101980D01*
X175714968Y-103101980D01*
X175860059Y-103130840D01*
X175860059Y-103130840D01*
G37*
G36*
X172288340Y-101081660D02*
G01*
X171186340Y-101081660D01*
X171186340Y-99979660D01*
X172288340Y-99979660D01*
X172288340Y-101081660D01*
X172288340Y-101081660D01*
G37*
G36*
X169788340Y-101081660D02*
G01*
X168686340Y-101081660D01*
X168686340Y-99979660D01*
X169788340Y-99979660D01*
X169788340Y-101081660D01*
X169788340Y-101081660D01*
G37*
G36*
X164669580Y-100356860D02*
G01*
X163667580Y-100356860D01*
X163667580Y-99454860D01*
X164669580Y-99454860D01*
X164669580Y-100356860D01*
X164669580Y-100356860D01*
G37*
G36*
X178187020Y-100343320D02*
G01*
X176885020Y-100343320D01*
X176885020Y-99341320D01*
X178187020Y-99341320D01*
X178187020Y-100343320D01*
X178187020Y-100343320D01*
G37*
G36*
X175987020Y-100343320D02*
G01*
X174685020Y-100343320D01*
X174685020Y-99341320D01*
X175987020Y-99341320D01*
X175987020Y-100343320D01*
X175987020Y-100343320D01*
G37*
G36*
X166669580Y-99406860D02*
G01*
X165667580Y-99406860D01*
X165667580Y-98504860D01*
X166669580Y-98504860D01*
X166669580Y-99406860D01*
X166669580Y-99406860D01*
G37*
G36*
X172258660Y-99253660D02*
G01*
X170956660Y-99253660D01*
X170956660Y-98251660D01*
X172258660Y-98251660D01*
X172258660Y-99253660D01*
X172258660Y-99253660D01*
G37*
G36*
X170058660Y-99253660D02*
G01*
X168756660Y-99253660D01*
X168756660Y-98251660D01*
X170058660Y-98251660D01*
X170058660Y-99253660D01*
X170058660Y-99253660D01*
G37*
G36*
X178100520Y-98724000D02*
G01*
X176798520Y-98724000D01*
X176798520Y-97872000D01*
X178100520Y-97872000D01*
X178100520Y-98724000D01*
X178100520Y-98724000D01*
G37*
G36*
X176200520Y-98724000D02*
G01*
X174898520Y-98724000D01*
X174898520Y-97872000D01*
X176200520Y-97872000D01*
X176200520Y-98724000D01*
X176200520Y-98724000D01*
G37*
G36*
X183368480Y-98619860D02*
G01*
X182066480Y-98619860D01*
X182066480Y-97767860D01*
X183368480Y-97767860D01*
X183368480Y-98619860D01*
X183368480Y-98619860D01*
G37*
G36*
X181468480Y-98619860D02*
G01*
X180166480Y-98619860D01*
X180166480Y-97767860D01*
X181468480Y-97767860D01*
X181468480Y-98619860D01*
X181468480Y-98619860D01*
G37*
G36*
X164669580Y-98456860D02*
G01*
X163667580Y-98456860D01*
X163667580Y-97554860D01*
X164669580Y-97554860D01*
X164669580Y-98456860D01*
X164669580Y-98456860D01*
G37*
G36*
X188666880Y-97771840D02*
G01*
X187364880Y-97771840D01*
X187364880Y-96769840D01*
X188666880Y-96769840D01*
X188666880Y-97771840D01*
X188666880Y-97771840D01*
G37*
G36*
X169974840Y-97569640D02*
G01*
X168672840Y-97569640D01*
X168672840Y-96567640D01*
X169974840Y-96567640D01*
X169974840Y-97569640D01*
X169974840Y-97569640D01*
G37*
G36*
X172174840Y-97569640D02*
G01*
X170872840Y-97569640D01*
X170872840Y-96567640D01*
X172174840Y-96567640D01*
X172174840Y-97569640D01*
X172174840Y-97569640D01*
G37*
G36*
X192812200Y-97327000D02*
G01*
X191510200Y-97327000D01*
X191510200Y-96475000D01*
X192812200Y-96475000D01*
X192812200Y-97327000D01*
X192812200Y-97327000D01*
G37*
G36*
X190912200Y-97327000D02*
G01*
X189610200Y-97327000D01*
X189610200Y-96475000D01*
X190912200Y-96475000D01*
X190912200Y-97327000D01*
X190912200Y-97327000D01*
G37*
G36*
X186420040Y-97275180D02*
G01*
X185568040Y-97275180D01*
X185568040Y-95973180D01*
X186420040Y-95973180D01*
X186420040Y-97275180D01*
X186420040Y-97275180D01*
G37*
G36*
X166505240Y-96881620D02*
G01*
X165503240Y-96881620D01*
X165503240Y-95579620D01*
X166505240Y-95579620D01*
X166505240Y-96881620D01*
X166505240Y-96881620D01*
G37*
G36*
X183781900Y-96634500D02*
G01*
X182028900Y-96634500D01*
X182028900Y-88937900D01*
X183781900Y-88937900D01*
X183781900Y-96634500D01*
X183781900Y-96634500D01*
G37*
G36*
X176517500Y-96634500D02*
G01*
X174764500Y-96634500D01*
X174764500Y-88937900D01*
X176517500Y-88937900D01*
X176517500Y-96634500D01*
X176517500Y-96634500D01*
G37*
G36*
X168101560Y-96627480D02*
G01*
X167249560Y-96627480D01*
X167249560Y-95325480D01*
X168101560Y-95325480D01*
X168101560Y-96627480D01*
X168101560Y-96627480D01*
G37*
G36*
X170005320Y-95941500D02*
G01*
X168703320Y-95941500D01*
X168703320Y-94939500D01*
X170005320Y-94939500D01*
X170005320Y-95941500D01*
X170005320Y-95941500D01*
G37*
G36*
X172205320Y-95941500D02*
G01*
X170903320Y-95941500D01*
X170903320Y-94939500D01*
X172205320Y-94939500D01*
X172205320Y-95941500D01*
X172205320Y-95941500D01*
G37*
G36*
X196894120Y-95852600D02*
G01*
X195592120Y-95852600D01*
X195592120Y-94850600D01*
X196894120Y-94850600D01*
X196894120Y-95852600D01*
X196894120Y-95852600D01*
G37*
G36*
X194694120Y-95852600D02*
G01*
X193392120Y-95852600D01*
X193392120Y-94850600D01*
X194694120Y-94850600D01*
X194694120Y-95852600D01*
X194694120Y-95852600D01*
G37*
G36*
X192837600Y-95752200D02*
G01*
X191535600Y-95752200D01*
X191535600Y-94900200D01*
X192837600Y-94900200D01*
X192837600Y-95752200D01*
X192837600Y-95752200D01*
G37*
G36*
X190937600Y-95752200D02*
G01*
X189635600Y-95752200D01*
X189635600Y-94900200D01*
X190937600Y-94900200D01*
X190937600Y-95752200D01*
X190937600Y-95752200D01*
G37*
G36*
X186420040Y-95375180D02*
G01*
X185568040Y-95375180D01*
X185568040Y-94073180D01*
X186420040Y-94073180D01*
X186420040Y-95375180D01*
X186420040Y-95375180D01*
G37*
G36*
X168101560Y-94727480D02*
G01*
X167249560Y-94727480D01*
X167249560Y-93425480D01*
X168101560Y-93425480D01*
X168101560Y-94727480D01*
X168101560Y-94727480D01*
G37*
G36*
X166505240Y-94681620D02*
G01*
X165503240Y-94681620D01*
X165503240Y-93379620D01*
X166505240Y-93379620D01*
X166505240Y-94681620D01*
X166505240Y-94681620D01*
G37*
G36*
X188666880Y-94471840D02*
G01*
X187364880Y-94471840D01*
X187364880Y-93469840D01*
X188666880Y-93469840D01*
X188666880Y-94471840D01*
X188666880Y-94471840D01*
G37*
G36*
X172223100Y-94430200D02*
G01*
X170921100Y-94430200D01*
X170921100Y-93428200D01*
X172223100Y-93428200D01*
X172223100Y-94430200D01*
X172223100Y-94430200D01*
G37*
G36*
X170023100Y-94430200D02*
G01*
X168721100Y-94430200D01*
X168721100Y-93428200D01*
X170023100Y-93428200D01*
X170023100Y-94430200D01*
X170023100Y-94430200D01*
G37*
G36*
X193150160Y-94387020D02*
G01*
X191848160Y-94387020D01*
X191848160Y-93385020D01*
X193150160Y-93385020D01*
X193150160Y-94387020D01*
X193150160Y-94387020D01*
G37*
G36*
X190950160Y-94387020D02*
G01*
X189648160Y-94387020D01*
X189648160Y-93385020D01*
X190950160Y-93385020D01*
X190950160Y-94387020D01*
X190950160Y-94387020D01*
G37*
G36*
X170023100Y-92944300D02*
G01*
X168721100Y-92944300D01*
X168721100Y-91942300D01*
X170023100Y-91942300D01*
X170023100Y-92944300D01*
X170023100Y-92944300D01*
G37*
G36*
X172223100Y-92944300D02*
G01*
X170921100Y-92944300D01*
X170921100Y-91942300D01*
X172223100Y-91942300D01*
X172223100Y-92944300D01*
X172223100Y-92944300D01*
G37*
G36*
X190295060Y-92876920D02*
G01*
X188993060Y-92876920D01*
X188993060Y-92024920D01*
X190295060Y-92024920D01*
X190295060Y-92876920D01*
X190295060Y-92876920D01*
G37*
G36*
X188395060Y-92876920D02*
G01*
X187093060Y-92876920D01*
X187093060Y-92024920D01*
X188395060Y-92024920D01*
X188395060Y-92876920D01*
X188395060Y-92876920D01*
G37*
G36*
X168136100Y-92838820D02*
G01*
X166834100Y-92838820D01*
X166834100Y-91986820D01*
X168136100Y-91986820D01*
X168136100Y-92838820D01*
X168136100Y-92838820D01*
G37*
G36*
X166236100Y-92838820D02*
G01*
X164934100Y-92838820D01*
X164934100Y-91986820D01*
X166236100Y-91986820D01*
X166236100Y-92838820D01*
X166236100Y-92838820D01*
G37*
G36*
X190307760Y-91492620D02*
G01*
X189005760Y-91492620D01*
X189005760Y-90640620D01*
X190307760Y-90640620D01*
X190307760Y-91492620D01*
X190307760Y-91492620D01*
G37*
G36*
X188407760Y-91492620D02*
G01*
X187105760Y-91492620D01*
X187105760Y-90640620D01*
X188407760Y-90640620D01*
X188407760Y-91492620D01*
X188407760Y-91492620D01*
G37*
G36*
X168093940Y-91430640D02*
G01*
X167241940Y-91430640D01*
X167241940Y-90128640D01*
X168093940Y-90128640D01*
X168093940Y-91430640D01*
X168093940Y-91430640D01*
G37*
G36*
X166652560Y-91428240D02*
G01*
X165650560Y-91428240D01*
X165650560Y-90126240D01*
X166652560Y-90126240D01*
X166652560Y-91428240D01*
X166652560Y-91428240D01*
G37*
G36*
X172200240Y-91417760D02*
G01*
X170898240Y-91417760D01*
X170898240Y-90415760D01*
X172200240Y-90415760D01*
X172200240Y-91417760D01*
X172200240Y-91417760D01*
G37*
G36*
X170000240Y-91417760D02*
G01*
X168698240Y-91417760D01*
X168698240Y-90415760D01*
X170000240Y-90415760D01*
X170000240Y-91417760D01*
X170000240Y-91417760D01*
G37*
G36*
X189797140Y-90088000D02*
G01*
X188495140Y-90088000D01*
X188495140Y-89236000D01*
X189797140Y-89236000D01*
X189797140Y-90088000D01*
X189797140Y-90088000D01*
G37*
G36*
X191697140Y-90088000D02*
G01*
X190395140Y-90088000D01*
X190395140Y-89236000D01*
X191697140Y-89236000D01*
X191697140Y-90088000D01*
X191697140Y-90088000D01*
G37*
G36*
X169995160Y-89906460D02*
G01*
X168693160Y-89906460D01*
X168693160Y-88904460D01*
X169995160Y-88904460D01*
X169995160Y-89906460D01*
X169995160Y-89906460D01*
G37*
G36*
X172195160Y-89906460D02*
G01*
X170893160Y-89906460D01*
X170893160Y-88904460D01*
X172195160Y-88904460D01*
X172195160Y-89906460D01*
X172195160Y-89906460D01*
G37*
G36*
X187960800Y-89582540D02*
G01*
X186658800Y-89582540D01*
X186658800Y-88730540D01*
X187960800Y-88730540D01*
X187960800Y-89582540D01*
X187960800Y-89582540D01*
G37*
G36*
X186060800Y-89582540D02*
G01*
X184758800Y-89582540D01*
X184758800Y-88730540D01*
X186060800Y-88730540D01*
X186060800Y-89582540D01*
X186060800Y-89582540D01*
G37*
G36*
X168093940Y-89530640D02*
G01*
X167241940Y-89530640D01*
X167241940Y-88228640D01*
X168093940Y-88228640D01*
X168093940Y-89530640D01*
X168093940Y-89530640D01*
G37*
G36*
X166652560Y-89228240D02*
G01*
X165650560Y-89228240D01*
X165650560Y-87926240D01*
X166652560Y-87926240D01*
X166652560Y-89228240D01*
X166652560Y-89228240D01*
G37*
G36*
X191989380Y-88699960D02*
G01*
X190687380Y-88699960D01*
X190687380Y-87697960D01*
X191989380Y-87697960D01*
X191989380Y-88699960D01*
X191989380Y-88699960D01*
G37*
G36*
X189789380Y-88699960D02*
G01*
X188487380Y-88699960D01*
X188487380Y-87697960D01*
X189789380Y-87697960D01*
X189789380Y-88699960D01*
X189789380Y-88699960D01*
G37*
G36*
X170211200Y-88289680D02*
G01*
X168909200Y-88289680D01*
X168909200Y-87437680D01*
X170211200Y-87437680D01*
X170211200Y-88289680D01*
X170211200Y-88289680D01*
G37*
G36*
X172111200Y-88289680D02*
G01*
X170809200Y-88289680D01*
X170809200Y-87437680D01*
X172111200Y-87437680D01*
X172111200Y-88289680D01*
X172111200Y-88289680D01*
G37*
G36*
X178049500Y-87889700D02*
G01*
X176747500Y-87889700D01*
X176747500Y-86887700D01*
X178049500Y-86887700D01*
X178049500Y-87889700D01*
X178049500Y-87889700D01*
G37*
G36*
X180249500Y-87889700D02*
G01*
X178947500Y-87889700D01*
X178947500Y-86887700D01*
X180249500Y-86887700D01*
X180249500Y-87889700D01*
X180249500Y-87889700D01*
G37*
G36*
X183119520Y-87655020D02*
G01*
X181817520Y-87655020D01*
X181817520Y-86653020D01*
X183119520Y-86653020D01*
X183119520Y-87655020D01*
X183119520Y-87655020D01*
G37*
G36*
X165877820Y-86789880D02*
G01*
X164575820Y-86789880D01*
X164575820Y-85787880D01*
X165877820Y-85787880D01*
X165877820Y-86789880D01*
X165877820Y-86789880D01*
G37*
G36*
X168077820Y-86789880D02*
G01*
X166775820Y-86789880D01*
X166775820Y-85787880D01*
X168077820Y-85787880D01*
X168077820Y-86789880D01*
X168077820Y-86789880D01*
G37*
G36*
X177434860Y-86254260D02*
G01*
X176432860Y-86254260D01*
X176432860Y-84952260D01*
X177434860Y-84952260D01*
X177434860Y-86254260D01*
X177434860Y-86254260D01*
G37*
G36*
X178891480Y-86238880D02*
G01*
X178039480Y-86238880D01*
X178039480Y-84936880D01*
X178891480Y-84936880D01*
X178891480Y-86238880D01*
X178891480Y-86238880D01*
G37*
G36*
X175729180Y-86061080D02*
G01*
X174877180Y-86061080D01*
X174877180Y-84759080D01*
X175729180Y-84759080D01*
X175729180Y-86061080D01*
X175729180Y-86061080D01*
G37*
G36*
X183119520Y-84355020D02*
G01*
X181817520Y-84355020D01*
X181817520Y-83353020D01*
X183119520Y-83353020D01*
X183119520Y-84355020D01*
X183119520Y-84355020D01*
G37*
G36*
X178891480Y-84338880D02*
G01*
X178039480Y-84338880D01*
X178039480Y-83036880D01*
X178891480Y-83036880D01*
X178891480Y-84338880D01*
X178891480Y-84338880D01*
G37*
G36*
X175729180Y-84161080D02*
G01*
X174877180Y-84161080D01*
X174877180Y-82859080D01*
X175729180Y-82859080D01*
X175729180Y-84161080D01*
X175729180Y-84161080D01*
G37*
G36*
X177434860Y-84054260D02*
G01*
X176432860Y-84054260D01*
X176432860Y-82752260D01*
X177434860Y-82752260D01*
X177434860Y-84054260D01*
X177434860Y-84054260D01*
G37*
G36*
X172397420Y-77807340D02*
G01*
X169095420Y-77807340D01*
X169095420Y-75005340D01*
X172397420Y-75005340D01*
X172397420Y-77807340D01*
X172397420Y-77807340D01*
G37*
G36*
X167561260Y-77796880D02*
G01*
X164259260Y-77796880D01*
X164259260Y-74994880D01*
X167561260Y-74994880D01*
X167561260Y-77796880D01*
X167561260Y-77796880D01*
G37*
G36*
X212629000Y-76109240D02*
G01*
X210027000Y-76109240D01*
X210027000Y-72007240D01*
X212629000Y-72007240D01*
X212629000Y-76109240D01*
X212629000Y-76109240D01*
G37*
G36*
X132593600Y-74747800D02*
G01*
X129991600Y-74747800D01*
X129991600Y-70645800D01*
X132593600Y-70645800D01*
X132593600Y-74747800D01*
X132593600Y-74747800D01*
G37*
G36*
X153881200Y-73743340D02*
G01*
X147379200Y-73743340D01*
X147379200Y-67841340D01*
X153881200Y-67841340D01*
X153881200Y-73743340D01*
X153881200Y-73743340D01*
G37*
G36*
X158081200Y-73723340D02*
G01*
X155779200Y-73723340D01*
X155779200Y-72421340D01*
X158081200Y-72421340D01*
X158081200Y-73723340D01*
X158081200Y-73723340D01*
G37*
G36*
X181253260Y-70468260D02*
G01*
X177651260Y-70468260D01*
X177651260Y-68566260D01*
X181253260Y-68566260D01*
X181253260Y-70468260D01*
X181253260Y-70468260D01*
G37*
G36*
X186253260Y-70468260D02*
G01*
X182651260Y-70468260D01*
X182651260Y-68566260D01*
X186253260Y-68566260D01*
X186253260Y-70468260D01*
X186253260Y-70468260D01*
G37*
G36*
X212629000Y-70009240D02*
G01*
X210027000Y-70009240D01*
X210027000Y-65907240D01*
X212629000Y-65907240D01*
X212629000Y-70009240D01*
X212629000Y-70009240D01*
G37*
G36*
X172397420Y-69907340D02*
G01*
X169095420Y-69907340D01*
X169095420Y-67105340D01*
X172397420Y-67105340D01*
X172397420Y-69907340D01*
X172397420Y-69907340D01*
G37*
G36*
X167561260Y-69896880D02*
G01*
X164259260Y-69896880D01*
X164259260Y-67094880D01*
X167561260Y-67094880D01*
X167561260Y-69896880D01*
X167561260Y-69896880D01*
G37*
G36*
X158081200Y-69163340D02*
G01*
X155779200Y-69163340D01*
X155779200Y-67861340D01*
X158081200Y-67861340D01*
X158081200Y-69163340D01*
X158081200Y-69163340D01*
G37*
G36*
X132593600Y-68647800D02*
G01*
X129991600Y-68647800D01*
X129991600Y-64545800D01*
X132593600Y-64545800D01*
X132593600Y-68647800D01*
X132593600Y-68647800D01*
G37*
G36*
X124197660Y-68184560D02*
G01*
X123345660Y-68184560D01*
X123345660Y-66882560D01*
X124197660Y-66882560D01*
X124197660Y-68184560D01*
X124197660Y-68184560D01*
G37*
G36*
X122394260Y-68176940D02*
G01*
X121542260Y-68176940D01*
X121542260Y-66874940D01*
X122394260Y-66874940D01*
X122394260Y-68176940D01*
X122394260Y-68176940D01*
G37*
G36*
X125973120Y-68141380D02*
G01*
X125121120Y-68141380D01*
X125121120Y-66839380D01*
X125973120Y-66839380D01*
X125973120Y-68141380D01*
X125973120Y-68141380D01*
G37*
G36*
X188348420Y-66631340D02*
G01*
X181846420Y-66631340D01*
X181846420Y-60729340D01*
X188348420Y-60729340D01*
X188348420Y-66631340D01*
X188348420Y-66631340D01*
G37*
G36*
X179948420Y-66611340D02*
G01*
X177646420Y-66611340D01*
X177646420Y-65309340D01*
X179948420Y-65309340D01*
X179948420Y-66611340D01*
X179948420Y-66611340D01*
G37*
G36*
X124197660Y-66284560D02*
G01*
X123345660Y-66284560D01*
X123345660Y-64982560D01*
X124197660Y-64982560D01*
X124197660Y-66284560D01*
X124197660Y-66284560D01*
G37*
G36*
X122394260Y-66276940D02*
G01*
X121542260Y-66276940D01*
X121542260Y-64974940D01*
X122394260Y-64974940D01*
X122394260Y-66276940D01*
X122394260Y-66276940D01*
G37*
G36*
X125973120Y-66241380D02*
G01*
X125121120Y-66241380D01*
X125121120Y-64939380D01*
X125973120Y-64939380D01*
X125973120Y-66241380D01*
X125973120Y-66241380D01*
G37*
G36*
X149089880Y-66058820D02*
G01*
X145487880Y-66058820D01*
X145487880Y-64156820D01*
X149089880Y-64156820D01*
X149089880Y-66058820D01*
X149089880Y-66058820D01*
G37*
G36*
X154089880Y-66058820D02*
G01*
X150487880Y-66058820D01*
X150487880Y-64156820D01*
X154089880Y-64156820D01*
X154089880Y-66058820D01*
X154089880Y-66058820D01*
G37*
G36*
X199584860Y-64887640D02*
G01*
X198732860Y-64887640D01*
X198732860Y-63585640D01*
X199584860Y-63585640D01*
X199584860Y-64887640D01*
X199584860Y-64887640D01*
G37*
G36*
X201182520Y-64885100D02*
G01*
X200330520Y-64885100D01*
X200330520Y-63583100D01*
X201182520Y-63583100D01*
X201182520Y-64885100D01*
X201182520Y-64885100D01*
G37*
G36*
X202808120Y-64885100D02*
G01*
X201956120Y-64885100D01*
X201956120Y-63583100D01*
X202808120Y-63583100D01*
X202808120Y-64885100D01*
X202808120Y-64885100D01*
G37*
G36*
X199584860Y-62987640D02*
G01*
X198732860Y-62987640D01*
X198732860Y-61685640D01*
X199584860Y-61685640D01*
X199584860Y-62987640D01*
X199584860Y-62987640D01*
G37*
G36*
X201182520Y-62985100D02*
G01*
X200330520Y-62985100D01*
X200330520Y-61683100D01*
X201182520Y-61683100D01*
X201182520Y-62985100D01*
X201182520Y-62985100D01*
G37*
G36*
X202808120Y-62985100D02*
G01*
X201956120Y-62985100D01*
X201956120Y-61683100D01*
X202808120Y-61683100D01*
X202808120Y-62985100D01*
X202808120Y-62985100D01*
G37*
G36*
X152072720Y-62122840D02*
G01*
X145570720Y-62122840D01*
X145570720Y-56220840D01*
X152072720Y-56220840D01*
X152072720Y-62122840D01*
X152072720Y-62122840D01*
G37*
G36*
X156272720Y-62102840D02*
G01*
X153970720Y-62102840D01*
X153970720Y-60800840D01*
X156272720Y-60800840D01*
X156272720Y-62102840D01*
X156272720Y-62102840D01*
G37*
G36*
X179948420Y-62051340D02*
G01*
X177646420Y-62051340D01*
X177646420Y-60749340D01*
X179948420Y-60749340D01*
X179948420Y-62051340D01*
X179948420Y-62051340D01*
G37*
G36*
X167945960Y-60003500D02*
G01*
X166863960Y-60003500D01*
X166863960Y-56201500D01*
X167945960Y-56201500D01*
X167945960Y-60003500D01*
X167945960Y-60003500D01*
G37*
G36*
X170315960Y-60003500D02*
G01*
X169233960Y-60003500D01*
X169233960Y-56201500D01*
X170315960Y-56201500D01*
X170315960Y-60003500D01*
X170315960Y-60003500D01*
G37*
G36*
X188424040Y-58996100D02*
G01*
X181922040Y-58996100D01*
X181922040Y-53094100D01*
X188424040Y-53094100D01*
X188424040Y-58996100D01*
X188424040Y-58996100D01*
G37*
G36*
X180024040Y-58976100D02*
G01*
X177722040Y-58976100D01*
X177722040Y-57674100D01*
X180024040Y-57674100D01*
X180024040Y-58976100D01*
X180024040Y-58976100D01*
G37*
G36*
X212439438Y-55141779D02*
G01*
X212670540Y-55211883D01*
X212883525Y-55325726D01*
X213070207Y-55478933D01*
X213223414Y-55665615D01*
X213337257Y-55878600D01*
X213407361Y-56109702D01*
X213431032Y-56350040D01*
X213407361Y-56590378D01*
X213337257Y-56821480D01*
X213223414Y-57034465D01*
X213070207Y-57221147D01*
X212883525Y-57374354D01*
X212670540Y-57488197D01*
X212439438Y-57558301D01*
X212259329Y-57576040D01*
X211488871Y-57576040D01*
X211308762Y-57558301D01*
X211077660Y-57488197D01*
X210864675Y-57374354D01*
X210677993Y-57221147D01*
X210524786Y-57034465D01*
X210410943Y-56821480D01*
X210340839Y-56590378D01*
X210317168Y-56350040D01*
X210340839Y-56109702D01*
X210410943Y-55878600D01*
X210524786Y-55665615D01*
X210677993Y-55478933D01*
X210864675Y-55325726D01*
X211077660Y-55211883D01*
X211308762Y-55141779D01*
X211488871Y-55124040D01*
X212259329Y-55124040D01*
X212439438Y-55141779D01*
X212439438Y-55141779D01*
G37*
G36*
X156272720Y-57542840D02*
G01*
X153970720Y-57542840D01*
X153970720Y-56240840D01*
X156272720Y-56240840D01*
X156272720Y-57542840D01*
X156272720Y-57542840D01*
G37*
G36*
X125853520Y-56201900D02*
G01*
X122751520Y-56201900D01*
X122751520Y-53749900D01*
X125853520Y-53749900D01*
X125853520Y-56201900D01*
X125853520Y-56201900D01*
G37*
G36*
X180024040Y-54416100D02*
G01*
X177722040Y-54416100D01*
X177722040Y-53114100D01*
X180024040Y-53114100D01*
X180024040Y-54416100D01*
X180024040Y-54416100D01*
G37*
G36*
X213425100Y-53616040D02*
G01*
X210323100Y-53616040D01*
X210323100Y-51164040D01*
X213425100Y-51164040D01*
X213425100Y-53616040D01*
X213425100Y-53616040D01*
G37*
G36*
X124867858Y-49807639D02*
G01*
X125098960Y-49877743D01*
X125311945Y-49991586D01*
X125498627Y-50144793D01*
X125651834Y-50331475D01*
X125765677Y-50544460D01*
X125835781Y-50775562D01*
X125859452Y-51015900D01*
X125835781Y-51256238D01*
X125765677Y-51487340D01*
X125651834Y-51700325D01*
X125498627Y-51887007D01*
X125311945Y-52040214D01*
X125098960Y-52154057D01*
X124867858Y-52224161D01*
X124687749Y-52241900D01*
X123917291Y-52241900D01*
X123737182Y-52224161D01*
X123506080Y-52154057D01*
X123293095Y-52040214D01*
X123106413Y-51887007D01*
X122953206Y-51700325D01*
X122839363Y-51487340D01*
X122769259Y-51256238D01*
X122745588Y-51015900D01*
X122769259Y-50775562D01*
X122839363Y-50544460D01*
X122953206Y-50331475D01*
X123106413Y-50144793D01*
X123293095Y-49991586D01*
X123506080Y-49877743D01*
X123737182Y-49807639D01*
X123917291Y-49789900D01*
X124687749Y-49789900D01*
X124867858Y-49807639D01*
X124867858Y-49807639D01*
G37*
M02*
