M48
; DRILL file {KiCad (5.1.0-0)} date Saturday, 11 May 2019 at 18:04:04
; FORMAT={-:-/ absolute / inch / decimal}
; #@! TF.CreationDate,2019-05-11T18:04:04+01:00
; #@! TF.GenerationSoftware,Kicad,Pcbnew,(5.1.0-0)
FMAT,2
INCH
T1C0.0157
T2C0.0472
T3C0.0650
T4C0.1575
%
G90
G05
T1
X4.8011Y-2.7177
X4.8724Y-2.7188
X4.9434Y-2.72
X6.2016Y-2.4194
X6.2738Y-2.9083
X6.453Y-3.6384
X6.4531Y-3.1318
X6.4736Y-3.4875
X6.5051Y-3.1318
X6.534Y-2.4676
X6.5533Y-3.1312
X6.5618Y-4.0181
X6.5962Y-3.8414
X6.5981Y-3.8928
X6.5995Y-3.1312
X6.6276Y-3.0888
X6.6465Y-3.1324
X6.6756Y-3.4058
X6.6947Y-3.1318
X6.7474Y-3.1304
X6.7983Y-3.1304
X6.8287Y-3.3146
X6.8511Y-3.1298
X6.853Y-3.0823
X6.8537Y-2.9358
X6.8537Y-2.9853
X6.8544Y-3.0347
X6.9176Y-2.4406
X6.9402Y-2.1175
X6.9648Y-2.8964
X6.9994Y-3.6661
X7.0262Y-3.2271
X7.0512Y-3.8722
X7.0514Y-3.6622
X7.0645Y-3.5391
X7.0933Y-3.7303
X7.1283Y-3.6913
X7.256Y-2.9176
X7.2684Y-3.6906
X7.2742Y-3.8658
X7.3921Y-3.7639
X7.5291Y-3.585
X7.5314Y-3.6385
X7.5882Y-3.5306
X7.63Y-3.8148
X7.6314Y-3.6914
X7.788Y-3.754
X7.8406Y-2.3798
X7.9041Y-2.3825
X7.9676Y-2.3835
T2
X5.169Y-3.0608
X5.5172Y-3.0433
X7.9499Y-3.0765
X8.32Y-3.1105
T3
X4.865Y-3.2821
X4.865Y-3.438
X8.3472Y-3.3165
X8.3472Y-3.4724
T4
X8.3546Y-2.07
X8.3794Y-4.0036
X4.8714Y-2.0881
X4.8546Y-3.9972
T0
M30
