M48
; DRILL file {KiCad (5.1.0-0)} date Saturday, 04 May 2019 at 19:21:22
; FORMAT={-:-/ absolute / inch / decimal}
; #@! TF.CreationDate,2019-05-04T19:21:22+01:00
; #@! TF.GenerationSoftware,Kicad,Pcbnew,(5.1.0-0)
FMAT,2
INCH
T1C0.0157
T2C0.0320
T3C0.0650
T4C0.0787
%
G90
G05
T1
X4.8011Y-2.7177
X4.8724Y-2.7188
X4.9434Y-2.72
X6.2016Y-2.4194
X6.2738Y-2.9083
X6.4048Y-3.8586
X6.453Y-3.6384
X6.4531Y-3.1318
X6.4736Y-3.4875
X6.5051Y-3.1318
X6.534Y-2.4676
X6.5533Y-3.1312
X6.5962Y-3.8414
X6.5995Y-3.1312
X6.6055Y-3.9581
X6.6276Y-3.0888
X6.6465Y-3.1324
X6.6756Y-3.4058
X6.6947Y-3.1318
X6.7474Y-3.1304
X6.7983Y-3.1304
X6.8287Y-3.3146
X6.8511Y-3.1298
X6.853Y-3.0823
X6.8537Y-2.9358
X6.8537Y-2.9853
X6.8544Y-3.0347
X6.9176Y-2.4406
X6.9402Y-2.1175
X6.9648Y-2.8964
X6.9994Y-3.6661
X7.0262Y-3.2271
X7.036Y-3.8709
X7.0514Y-3.6622
X7.0645Y-3.5391
X7.0933Y-3.7303
X7.1283Y-3.6913
X7.194Y-3.9111
X7.256Y-2.9176
X7.2684Y-3.6906
X7.3921Y-3.7639
X7.5291Y-3.585
X7.5314Y-3.6385
X7.5882Y-3.5306
X7.63Y-3.8148
X7.6314Y-3.6914
X7.788Y-3.754
X7.8406Y-2.3798
X7.9041Y-2.3825
X7.9676Y-2.3835
T2
X6.915Y-4.0887
X7.015Y-4.0887
T3
X4.8938Y-2.0085
X4.8938Y-2.1644
X8.3415Y-2.0626
X8.3415Y-2.2185
T4
X5.169Y-3.0608
X8.32Y-3.1105
T0
M30
